<svg width="70" height="288" xmlns="http://www.w3.org/2000/svg" xmlns:xlink="http://www.w3.org/1999/xlink" overflow="hidden"><defs><clipPath id="clip0"><rect x="2173" y="2086" width="70" height="288"/></clipPath></defs><g clip-path="url(#clip0)" transform="translate(-2173 -2086)"><path d="M2216.64 2245.71C2216.83 2248.08 2217.56 2251.18 2218.06 2252.71 2219.6 2257.45 2222.05 2260.43 2227.63 2264.34 2228.71 2265.1 2230.14 2266.34 2231.84 2268.03 2234.04 2270.21 2234.55 2270.81 2235.31 2272.11 2236.34 2273.88 2237.46 2276.4 2237.81 2277.73 2238.89 2281.88 2238.7 2297.07 2237.3 2318.12 2236.1 2336.17 2233.56 2364.56 2233.02 2366 2232.58 2367.17 2231.09 2368.7 2229.96 2369.14 2227.16 2370.26 2223.58 2368.67 2222.61 2365.89 2222.23 2364.81 2222.24 2363.23 2222.89 2343.23 2223.1 2336.54 2223.34 2329.15 2223.41 2326.81 2223.48 2324.47 2223.61 2320.26 2223.7 2317.46 2223.79 2314.66 2223.92 2310.58 2223.99 2308.4 2224.06 2306.22 2224.15 2303.76 2224.18 2302.93 2224.27 2300.82 2223.81 2299.49 2222.51 2298.19 2221.65 2297.33 2221.29 2297.11 2220.27 2296.82 2218.21 2296.22 2216.2 2296.73 2214.68 2298.24 2213.04 2299.87 2213.11 2298.5 2213.1 2333.02 2213.1 2357.24 2213.01 2365.05 2212.74 2365.85 2211.78 2368.68 2208.3 2370.25 2205.43 2369.14 2204.2 2368.67 2202.63 2367.04 2202.23 2365.81 2202 2365.11 2201.9 2355.55 2201.88 2332.72L2201.86 2300.61 2201.23 2299.5C2200.44 2298.08 2199.36 2297.22 2197.81 2296.78 2195.05 2296.01 2191.97 2297.63 2191.09 2300.33 2190.9 2300.92 2190.89 2304.28 2191.08 2310.21 2191.24 2315.16 2191.43 2321.5 2191.52 2324.31 2191.6 2327.12 2191.7 2330.25 2191.73 2331.26 2191.81 2333.5 2191.95 2338.06 2192.03 2340.75 2192.07 2341.84 2192.13 2343.82 2192.18 2345.14 2192.4 2351.85 2192.55 2356.55 2192.61 2358.87 2192.64 2360.28 2192.7 2362.16 2192.73 2363.05 2192.82 2365.21 2192.34 2366.59 2191.08 2367.84 2188.11 2370.79 2183.11 2369.61 2181.9 2365.68 2181.5 2364.39 2179.1 2338.36 2178.36 2327.32 2178.24 2325.59 2178.05 2322.89 2177.92 2321.33 2177.13 2311.27 2176.5 2297.12 2176.51 2289.27 2176.51 2280.08 2176.86 2277.65 2178.72 2273.93 2180.51 2270.36 2182.93 2267.72 2187.77 2264.08 2191.22 2261.48 2193.48 2259.33 2194.67 2257.52 2196.34 2254.98 2197.84 2251.27 2198.05 2247.88 2198.58 2239.47 2197.21 2214.56 2196.06 2197.95 2194.34 2172.88 2190.88 2115.41 2192.29 2105.81 2192.72 2102.92 2194.02 2099.64 2195.18 2097.5 2196.47 2095.14 2199.05 2092.38 2201.03 2091.26 2205.32 2088.81 2210.44 2088.93 2214.53 2091.58 2219.12 2094.55 2222.53 2101.45 2223.19 2109.12 2223.4 2111.63 2223.37 2122.23 2223.13 2128.93 2222.76 2139.14 2221.65 2158.4 2220.12 2180.85 2219.68 2187.25 2219.1 2195.87 2218.83 2200.01 2218.83 2200.01 2218.46 2205.03 2218.32 2207.54 2217.62 2220.26 2215.65 2233.01 2216.64 2245.71Z" stroke="#FFFFFF" stroke-width="6.875" stroke-miterlimit="8" fill="none" fill-rule="evenodd"/></g></svg>