<?xml version="1.0" encoding="UTF-8" standalone="no"?>
<!-- Generator: Adobe Illustrator 25.2.0, SVG Export Plug-In . SVG Version: 6.00 Build 0)  -->

<svg
   version="1.1"
   id="Layer_1"
   x="0px"
   y="0px"
   viewBox="0 0 333.68493 321.03924"
   xml:space="preserve"
   sodipodi:docname="Logo fondo blanco sans tetxe.svg"
   width="333.68494"
   height="321.03925"
   inkscape:version="1.1 (c68e22c387, 2021-05-23)"
   xmlns:inkscape="http://www.inkscape.org/namespaces/inkscape"
   xmlns:sodipodi="http://sodipodi.sourceforge.net/DTD/sodipodi-0.dtd"
   xmlns="http://www.w3.org/2000/svg"
   xmlns:svg="http://www.w3.org/2000/svg"><defs
   id="defs73" /><sodipodi:namedview
   id="namedview71"
   pagecolor="#ffffff"
   bordercolor="#666666"
   borderopacity="1.0"
   inkscape:pageshadow="2"
   inkscape:pageopacity="0.0"
   inkscape:pagecheckerboard="0"
   showgrid="false"
   inkscape:zoom="1.0252525"
   inkscape:cx="161.91133"
   inkscape:cy="188.73399"
   inkscape:window-width="1920"
   inkscape:window-height="991"
   inkscape:window-x="-9"
   inkscape:window-y="-9"
   inkscape:window-maximized="1"
   inkscape:current-layer="g38" />
<style
   type="text/css"
   id="style2">
	.st0{fill-rule:evenodd;clip-rule:evenodd;}
	.st1{fill-rule:evenodd;clip-rule:evenodd;fill:#75C5C2;}
</style>
<path
   class="st0"
   d="m 189.71491,73.737939 c 1.1,0.2 2,0.3 2.9,0.6 1.4,0.4 1.9,1.4 1.9,2.8 0,1.6 0.3,3.1 0.4,4.7 0.1,1.5 0.2,3 0.2,4.5 0,2.1 -0.3,4.2 -0.3,6.4 0.1,6.7 0.3,13.400001 0.4,20.000001 0,4.5 -0.5,9 0,13.4 0.4,3.1 0,6.1 -0.5,8.9 -0.6,3.2 -1.7,6.6 -5.1,8.5 -2.9,1.6 -2.9,2.8 -2.6,6.2 0.4,5 0.4,10 0.5,15 0.1,5.2 0,10.4 0.1,15.5 0.1,2.6 0.5,5.1 0.5,7.7 0,4.3 -0.2,8.5 -0.2,12.8 0,1.7 0.3,3.4 0.3,5 -0.1,9.3 -0.2,18.5 -0.3,27.8 -0.1,5.8 -0.3,11.7 -0.4,17.5 0,0.1 -0.1,0.2 0,0.3 1.5,3.7 -0.3,7.5 0.4,11.3 0.4,2.1 -0.4,3.8 -2.4,4.7 -0.4,0.2 -0.8,0.4 -1,0.7 -1.3,2 -3.2,2.5 -5.4,2.6 -2.2,0.1 -3.8,-1.3 -5.4,-2.4 -1.8,-1.3 -2.6,-3.3 -3.3,-5.4 -2,-5.9 -0.9,-11.9 -1.6,-17.9 -0.3,-3.1 -0.4,-6.2 -0.3,-9.2 0.1,-2.6 -0.4,-5.4 1.3,-7.9 0.3,-0.5 0.3,-1.3 0.3,-2 0,-4.7 0,-9.4 0,-14.1 0,-3.7 -0.2,-7.4 0,-11 0.2,-6 0.7,-12 1,-18 0.2,-3.8 0.3,-7.6 0.3,-11.5 0.1,-5.2 -0.1,-10.5 0,-15.7 0,-2.9 0.5,-5.7 0.5,-8.6 0,-1.2 -0.5,-2.8 -1.3,-3.7 -1.9,-2.1 -4.1,-3.9 -6.2,-5.8 -0.2,-0.2 -0.4,-0.7 -0.4,-1 -0.6,-2.6 -1.1,-5.2 -1.7,-7.9 -0.5,-2.6 -0.7,-5.2 0.3,-7.8 0.2,-0.5 0.4,-1 0.4,-1.5 0.1,-3.2 0.4,-6.4 0.1,-9.5 -0.8,-7.1 0,-14.100001 0.9,-21.100001 0.4,-2.8 0.2,-5.6 0.3,-8.4 0.1,-1.6 0.1,-3.1 0.4,-4.6 0.4,-1.7 1.8,-2.3 3.5,-2.3 1.1,0 1.6,0.4 1.6,1.6 -0.1,3.7 0,7.4 0,11.1 0,7.3 0,14.500001 0,21.800001 0,3.7 -0.2,7.4 -0.4,11.1 -0.1,0.8 -0.9,1.6 -0.9,2.4 0,3.8 0,7.5 0.5,11.3 0.2,1.5 1.5,3 2.5,4.3 0.8,1.2 1.8,2.5 3,3.1 3.3,1.6 3.4,4.6 3.5,7.4 0.1,4 -0.1,8 -0.1,11.9 0,14 0.2,27.9 -0.1,41.9 -0.1,6.4 -1.3,12.9 -1.8,19.3 -0.2,3.8 0.2,7.6 0.1,11.4 -0.1,4.6 -0.4,9.2 -0.5,13.8 -0.1,4.4 -0.1,8.8 -0.1,13.2 0,2.3 1.4,3.7 3,4.9 0.3,0.2 1.1,0.1 1.4,-0.2 2.7,-3.1 3.8,-6.5 2.4,-10.6 -0.4,-1.1 -0.3,-2.3 -0.3,-3.5 0.1,-2.2 0.3,-4.3 0.3,-6.5 0,-3.5 0,-7.1 -0.1,-10.6 -0.1,-5.5 -0.2,-10.9 -0.4,-16.4 -0.2,-6.5 -0.4,-12.9 -0.7,-19.3 -0.3,-7.6 -0.7,-15.2 -0.8,-22.7 -0.1,-6.8 0.3,-13.7 0.5,-20.5 0,-0.4 0,-0.9 0,-1.3 0,-3.2 -0.1,-6.4 0,-9.5 0,-0.6 0.4,-1.3 0.8,-1.7 2.1,-2.2 4.4,-4.3 6.5,-6.6 0.7,-0.8 1.3,-2.1 1.3,-3.1 0.1,-11.6 0.1,-23.2 0,-34.800001 0,-5.4 -0.3,-10.8 -0.3,-16.2 0.2,-1.9 0.5,-4.1 0.6,-6.6 z"
   id="path4" />
<path
   class="st0"
   d="m 177.11491,118.53794 c -1.3,0 -2.4,0 -3.7,0 0,-0.6 0,-1.2 0,-1.8 0,-13.6 0,-27.100001 0,-40.700001 0,-2.1 0.3,-2.4 2.3,-2.7 0.9,-0.1 1.5,0.1 1.4,1.2 -0.1,1.9 0,3.7 0,5.6 0,12.1 0,24.300001 0,36.500001 0,0.6 0,1.3 0,1.9 z"
   id="path6" />
<path
   class="st0"
   d="m 185.21491,118.83794 c -1.2,-0.1 -2.2,-0.2 -3.3,-0.3 0,-0.4 -0.1,-0.9 -0.1,-1.4 0,-14 0,-27.900001 0,-41.900001 0,-1.8 0.5,-2.1 2.2,-1.8 1,0.2 1.2,0.8 1.2,1.7 0,4.2 0,8.4 0,12.7 0,9.7 0,19.500001 0,29.200001 0,0.5 0,1.1 0,1.8 z"
   id="path8" />
<path
   class="st0"
   d="m 147.01491,106.83794 c 0,-0.2 0,-0.3 0,-0.5 0.3,-2.7 0,-5.4 -1.2,-7.900001 -0.5,-1 -0.7,-2.2 -1,-3.4 -1.1,-4 -2.2,-8 -5.1,-11.2 -0.7,-0.7 -1.4,-1.5 -2,-2.2 -2.1,-2.4 -4.2,-4.7 -7.8,-5.4 -2.4,-0.5 -4.7,-0.8 -6.8,0.4 -2.3,1.3 -4.6,2.7 -6.8,4.2 -0.4,0.3 -0.7,0.8 -0.9,1.2 -1.4,2.3 -2.9,4.6 -4,7 -1.4,3 -3,6.1 -3.6,9.3 -0.8,4.300001 -0.8,8.800001 -1,13.300001 -0.1,1.1 0,2.2 0,3.3 -0.1,1.4 -0.4,2.9 -0.3,4.3 0.3,2.9 0.7,5.8 1.2,8.7 0.2,1 0.5,2 1.1,2.8 1.5,2 1.3,5 3.7,6.6 0.2,0.1 0.1,0.6 0.3,0.8 1.5,1.7 2.8,3.6 4.6,4.9 1.1,0.9 1.7,1.6 1.7,3 0,3.5 0,7 0,10.5 0,1.9 0.1,3.7 0.1,5.6 0,12.2 0,24.4 -0.1,36.6 0,4.9 -0.1,9.9 -0.4,14.8 -0.3,4.8 -0.9,9.7 -1.3,14.5 -0.1,2.1 0.2,4.3 0.3,6.4 0.1,3.9 0.1,7.8 0.1,11.7 0,1.3 0,2.7 -0.1,4 -0.2,1.9 -0.6,3.7 -0.9,5.6 0.1,0 0.2,0 0.3,0 0,1 0.2,2 0.1,3 -0.2,3.2 1.6,5.6 3.2,8 0.9,1.3 2.5,2.2 4,3 3.6,1.8 6.4,0.1 8.6,-2.5 2.1,-2.3 3.7,-4.7 3,-8.3 -0.6,-3.4 -0.2,-6.9 -0.2,-10.4 -0.2,-11.1 0.6,-22.2 -0.9,-33.3 -2.1,-15.9 -1.4,-31.9 -1.5,-47.9 0,-6.7 -0.4,-13.4 -0.4,-20 0,-0.9 0.5,-2 1.2,-2.8 2.1,-2.6 5.7,-3.7 7.4,-6.9 1.3,-2.4 2.7,-4.7 3.9,-7 0.4,-0.7 0.8,-1.5 1.1,-2.3 0.4,-1.2 0.9,-2.4 1,-3.7 -0.4,-6 0.6,-11.9 -0.6,-17.8 z m -5.1,17.2 c -1.1,4.1 -2.4,8.2 -5.6,11.5 -2,2 -4.1,3.6 -6.4,5 -1.6,1 -1.9,2.6 -1.9,4.2 -0.1,5.7 -0.1,11.3 -0.1,17 0,3.6 0.2,7.2 0.3,10.8 0.2,10.8 0.2,21.6 0.4,32.3 0.1,4.7 0.6,9.3 0.8,13.9 0.4,10.3 0.8,20.7 1.1,31 0.1,3.1 0,6.2 0.1,9.2 0,2 -0.9,3.5 -2.3,4.7 -1.3,1.1 -4.4,0.1 -4.9,-1.6 -0.5,-1.8 -1,-3.7 -1.3,-5.5 -0.1,-0.7 0.1,-1.5 0.5,-2.1 0.9,-1.7 0.9,-3.5 0.9,-5.4 -0.1,-4.8 0.2,-9.5 0.2,-14.3 0,-6.9 -0.1,-13.7 -0.1,-20.6 0,-4.6 0.1,-9.2 0,-13.8 0,-6 -0.2,-11.9 -0.2,-17.9 0.1,-10.5 0.2,-21 0.3,-31.6 0,-2.3 -0.1,-4.6 0,-6.8 0.1,-2.7 -2.2,-3.8 -3.8,-5.3 -2.4,-2.2 -4.6,-4.5 -5.7,-7.7 0,-0.1 0,-0.2 -0.1,-0.3 -3.5,-4.2 -2.4,-9.7 -4.2,-14.4 -0.3,-0.9 0.2,-2.1 0.3,-3.1 0.5,-3.4 1.3,-6.7 1.5,-10.1 0.4,-6.700001 3.2,-12.400001 7,-17.800001 1.2,-1.7 2.7,-3.1 4.4,-4.4 0.7,-0.5 2,-0.4 3,-0.3 1.2,0 2.4,0.2 3.6,0.4 0.7,0.1 1.5,0.3 1.9,0.8 1.9,2.1 3.6,4.2 5.4,6.4 0.2,0.3 0.6,0.6 0.5,0.8 -0.2,3.4 2.8,5.7 2.9,9 0,1.3 0.7,2.700001 1.1,4.000001 0.3,0.9 0.7,1.8 0.7,2.7 0.1,2.4 0,4.8 0,7.3 0.2,0 0.3,0 0.5,0 -0.1,4.2 0.2,8.3 -0.8,12 z"
   id="path10" />
<path
   class="st0"
   d="m 239.01491,225.83794 c -0.1,-11.8 0,-23.6 -0.1,-35.4 0,-2.7 -0.6,-5.5 -1,-8.2 -0.4,-3.3 -1.2,-6.5 -1.3,-9.8 -0.2,-6.4 0,-12.8 0,-19.2 -0.1,-7.6 -0.2,-15.3 -0.2,-22.9 0,-7.5 0.1,-15 0.2,-22.4 0.1,-3.7 0.1,-7.3 0.4,-10.900001 0.3,-3.6 1,-7.2 1.2,-10.9 0.4,-6.2 0.5,-12.5 0.6,-18.7 0,-1.3 -0.6,-2.6 -1,-3.8 -0.3,-0.9 -0.9,-1.8 -1.3,-2.7 -1.2,-3 -4.2,-4.2 -7,-2.5 -0.9,0.5 -1.7,1.4 -2.2,2.3 -1,1.7 -1.8,3.4 -2.6,5.2 -1.1,2.3 -2.6,4.6 -3.2,7 -1.2,5 -2.1,10.1 -2.9,15.2 -0.9,6.1 -2,12.200001 -2.2,18.400001 -0.4,15.4 -0.3,30.8 -0.4,46.2 0,1.1 0.2,2.5 0.8,3.3 1.6,2 3.4,3.9 5.3,5.6 1.4,1.3 1.7,2.6 1.5,4.4 -0.3,3.2 -0.6,6.3 -0.7,9.5 -0.2,8.4 -0.2,16.7 -0.5,25.1 -0.3,7.5 -1.2,15 -1.4,22.5 -0.3,10.5 -0.1,21 -0.1,31.5 -0.1,0 -0.2,0 -0.3,0 0.1,1.7 0,3.5 0.4,5.2 0.3,1.7 1,3.4 1.7,5 1.3,3.1 4.1,4.2 6.9,5.3 0.7,0.3 1.6,0 2.3,-0.2 3.6,-1 6.9,-5.3 7,-9.2 0.1,-5.2 0.2,-10.5 0.2,-15.7 0.1,-6.4 -0.1,-12.8 -0.1,-19.2 z m -4.9,35.3 c -0.2,0.9 -0.9,1.7 -1.5,2.4 -0.8,1.1 -1.9,1.9 -3.3,1.4 -1.5,-0.6 -2.7,-1.5 -3.1,-3.3 -0.2,-0.8 -0.6,-1.6 -0.7,-2.4 -0.3,-1.7 -0.5,-3.4 -0.6,-5.1 -0.1,-1.7 0.1,-3.4 0.2,-5.1 0.4,-8.9 0.8,-17.9 1.1,-26.8 0.1,-4.3 -0.2,-8.7 -0.1,-13 0.1,-3.6 0.8,-7.3 1,-10.9 0.2,-4 0,-8.1 0,-12.1 0,0 0,0 0,0 0,-3.8 0,-7.6 0,-11.5 0,-3.9 0.1,-7.7 0.2,-11.6 0,-1.4 -0.2,-2.5 -1.4,-3.5 -1.8,-1.6 -3.4,-3.5 -4.9,-5.4 -0.5,-0.7 -0.7,-1.8 -0.7,-2.7 0,-12.4 -0.1,-24.9 0,-37.3 0,-4.5 0.2,-9.1 0.3,-13.6 0,-0.800001 0.1,-1.700001 0.5,-2.300001 1.2,-1.7 1.5,-3.5 1.3,-5.5 -0.4,-4.7 1.3,-9.1 2,-13.6 0.5,-3.6 1.8,-6.8 3,-10.1 0.6,-1.6 1.4,-3.2 2.4,-4.6 0.6,-0.8 1.9,-1.2 2.8,-1.7 0.4,0.9 0.8,1.9 1.1,2.8 0.1,0.3 -0.1,0.7 -0.1,1 -0.1,2.2 -0.1,4.4 -0.1,6.7 0,2.3 0,4.6 0,6.8 -0.1,10.8 -0.3,21.600001 -0.5,32.400001 -0.1,4.8 -0.3,9.6 -0.3,14.3 0,9.4 0.2,18.8 0.2,28.2 0.1,9.9 0,19.8 0.2,29.7 0.1,6.1 0.8,12.1 1,18.2 0.2,9.3 0.1,18.5 0.2,27.8 0,6.5 0.1,12.9 0.2,19.4 0,0.5 0,1 0.2,1.5 1.2,3.3 0.2,6.4 -0.6,9.5 z"
   id="path12" />
<g
   id="g38"
   transform="translate(-144.48509,-210.56206)">
	
	
	
	
	
	
	
	
	
	
	
	
</g>


<path
   class="st1"
   d="m 332.41491,181.83794 c 0.4,-0.8 1,-1.9 0.8,-2.6 -0.5,-2.4 -0.6,-4.7 -0.6,-7.1 0,-3.7 0,-7.2 0.6,-10.9 0.5,-2.9 0.7,-6.1 0.1,-9 -0.7,-3.2 -1.3,-6.3 -1.4,-9.6 -0.1,-3.3 -0.8,-6.7 -1.4,-10 -0.3,-1.8 -0.7,-3.6 -1.1,-5.4 -0.4,-1.7 -0.9,-3.3 -1.3,-5 -0.5,-1.7 -1,-3.4 -1.5,-5.1 -0.4,-1.2 -0.7,-2.4 -1.1,-3.7 -0.4,-1.3 -0.9,-2.6 -1.2,-3.9 -0.3,-1.1 -0.2,-2.3 -0.6,-3.2 -1.3,-2.4 -2.7,-4.8 -4.1,-7.100001 -0.7,-1.2 -1.8,-2.2 -2,-3.4 -0.9,-4.1 -3.4,-7.4 -5.3,-11 -0.6,-1.1 -1.2,-2.2 -1.4,-3.4 -0.5,-2.1 -1.6,-3.7 -3.4,-4.8 -1.8,-1.1 -2.2,-2 -1.6,-4.1 0.1,-0.4 0.3,-1 0.1,-1.3 -1.7,-2.8 -2.7,-6.2 -6.1,-7.8 -0.5,-0.2 -0.9,-1 -1.3,-1.5 -0.6,-0.7 -1,-1.5 -1.6,-2.1 -1.4,-1.6 -2.8,-3.1 -4.2,-4.6 -0.9,-0.9 -1.8,-1.8 -2.7,-2.7 -1.5,-1.4 -3.1,-2.6 -4.4,-4.1 -1.6,-1.9 -2.6,-4.3 -4.4,-5.9 -4,-3.9 -8.4,-7.5 -12.6,-11.1 -0.5,-0.5 -1.2,-0.8 -1.8,-1.3 -2,-1.5 -3.8,-3.3 -6,-4.5 -3.7,-2 -7.6,-3.6 -11.3,-5.6 -4.8,-2.6 -9.5,-5.5 -14.3,-8.1 -3.2,-1.8 -6.5,-3.7000005 -10.5,-3.0000005 -0.4,0.1 -1.1,-0.5 -1.3,-0.9 -0.5,-1.2 -1.4,-1.7 -2.6,-1.8 -2.4,-0.2 -4.9,-0.1 -7.2,-0.5 -2.6,-0.5 -5.2,-1.1 -7.5,-2.2 -1.9,-0.9 -3.7,-1.3 -5.8,-1.2 -1.2,0.1 -2.5,-0.3 -3.7,-0.5 -1.7,-0.3 -3.4,-0.6 -5.1,-0.8 -1.4,-0.19999997 -3,0 -4.3,-0.49999997 -2.6,-0.9 -4.9,-0.8 -7,1.29999997 -1.6,1.6 -2.8,1.7 -4.7,0.5 -2.1,-1.3 -4.2,-1.2 -6.5,-0.8 -2.4,0.3 -5,0.6 -7.3,0 -3.4,-0.89999997 -6.5,-0.3 -9.6,0.6 -0.6,0.2 -1.3,1.2 -1.2,1.8 0.1,1.2 -0.3,1.2 -1.2,1 -1.8,-0.3 -3.6,-0.7 -5.5,-0.8 -2.5,-0.1 -3.2,0.4 -3.9,2.6 -1.3,-0.1 -2.8,-0.5 -4,-0.1 -2.9,0.8 -5.8,1.9 -8.7,2.9 -0.2,0.1 -0.4,0.2 -0.5,0.4 -0.6,1.2000005 -1.7,1.0000005 -2.7,1.2000005 -1.8,0.3 -3.5,0.6 -5.2,1.2 -1.5,0.5 -2.8,1.4 -4.2,2.1 -0.6,0.3 -1.1,0.5 -1.7,0.8 -4.1,2.5 -8.3,5 -12.4,7.5 -1.400004,0.8 -3.000004,1.7 -4.6,2.1 -2.1,0.5 -3.5,1.6 -4.9,3 -0.7,0.6 -1.4,1.2 -2.3,1.7 -1.5,0.8 -3.3,1.1 -4.5,2.1 -2,1.6 -3.6,3.5 -5.4,5.3 -1.7,1.7 -3.2,4.1 -5.2,5 -2.8,1.2 -5.4,2.7 -7.6,4.8 -1.9,1.7 -3.6,3.7 -4.9,5.8 -1.6,2.6 -3.3,5 -5.7,6.9 -1.7,1.4 -3.4,2.9 -4.7,4.7 -1.6,2.3 -3.6,4.1 -5.7,5.9 -2.7,2.4 -5.1,5 -7.3,7.8 -2.6,3.4 -4.8,7.1 -7.1,10.7 -2.1,3.3 -4.2,6.6 -6.3,9.9 -1.7,2.600001 -3.4,5.200001 -5.1,7.900001 -0.5,0.8 -1,1.6 -1.3,2.4 -0.7,1.5 -1.3,3.1 -1.8,4.6 -0.7,2 -1.6,3.6 -3.4,4.9 -1.4,1.1 -1.7,3.5 -2.4,5.4 -1.2000003,3.3 -1.8000003,6.8 -3.5000003,9.8 -1.4,2.5 -2.2,5 -2.3,7.6 -0.3,6.1 -1.6,12 -3,17.9 -0.4,1.5 -0.4,3.1 -0.3,4.7 0.1,2.5 0.4,4.9 0.6,7.4 0,0.4 0,0.8 0.1,1.2 0.6,1.7 -0.1,3.1 -1.2,4.3 -1.69999997,1.9 -1.59999997,3.3 0.2,5 0.3,0.3 0.5,1.1 0.3,1.5 -1.39999997,3.3 -0.89999997,6.5 0,9.7 0.5,1.8 0.8,3.5 0.1,5.3 -0.7,1.7 -0.3,3.5 0.3,5.3 0.8,2.3 1.2,4.8 1.9,7.1 0.4,1.5 0.6,2.9 1.1,4.4 0.9,2.7 2.1,5.3 3,8 1,3.1 1.7,6.4 2.5000003,9.5 0.1,0.4 0.5,0.7 0.7,1.1 0.5,0.9 1.2,1.7 1.5,2.6 1.5,4.2 3.6,8.1 6,11.7 1.3,2 1.7,4.5 3.9,5.9 0.1,0.1 0.1,0.3 0.2,0.4 1.2,2 2.3,4 3.6,5.9 1.8,2.5 3.5,5.1 5.6,7.4 1.4,1.6 2.5,4 5.5,3.6 0.5,-0.1 1.2,0.7 1.5,1.3 0.5,0.9 0.5,2.1 1.1,2.9 1.5,2.1 3.1,4.1 4.8,6.2 0.2,0.3 0.7,0.4 1,0.5 2.8,0.8 4.2,3.3 5.9,5.2 2.3,2.6 4.8,4.9 7.7,6.6 1.4,0.8 3,1.1 4.4,1.8 1.5,0.8 2.8,2 4.3,2.9 1.1,0.7 2.6,1 3.4,1.9 2,2.3 4.2,4.2 6.8,5.6 1.1,0.6 2.4,0.9 3.5,1.4 0.7,0.3 1.5,0.6 2,1.2 1.1,1.4 3.8,1.8 5,0.6 1.2,-1.2 2.4,-1 3.8,-0.4 1.2,0.5 2.4,0.8 3.6,1.3 2.999996,1.2 5.9,2.8 9.2,3.2 0,0 0.1,0.1 0.1,0.1 1.2,0.6 2.4,1.1 3.6,1.7 0.5,0.2 1.1,0.5 1.9,0.9 -0.7,0.1 -1,0.1 -1.2,0.3 -0.4,0.4 -0.7,0.9 -1.1,1.3 0.4,0.3 0.8,0.8 1.3,0.9 1.8,0.4 2.5,-0.1 2.9,-2.1 3.9,0.4 7.8,0.5 11.3,2.3 1.7,0.9 3.4,1.2 5.4,1 1.8,-0.1 3.7,0.1 5.5,0.2 1,0 2,0.1 3,0.1 2.7,0.1 5.4,0.2 8,0.4 2.3,0.2 4.8,1.1 7,0.7 5.6,-1 11.2,-0.9 16.8,-1.3 7,-0.5 14.2,0.6 20.9,-2.4 0.2,-0.1 0.3,-0.1 0.5,-0.1 3.1,-0.2 6,-0.4 9,-1.6 3.8,-1.5 7.9,-2 11.9,-3 0.7,-0.2 1.4,-0.5 2,-0.8 1.9,-0.9 3.8,-1.9 5.8,-2.7 6.1,-2.5 12.3,-4.6 17.7,-8.6 1.3,-1 2.9,-1.6 4.4,-2.4 0.3,-0.2 0.7,-0.3 1,-0.6 2.1,-1.6 4.4,-3.1 6.4,-4.9 3.6,-3.2 7.1,-6.5 10.4,-10 0.8,-0.9 0.6,-2.7 0.7,-4.1 0,-0.2 -0.4,-0.6 -0.7,-0.6 -1.8,-0.1 -3.4,-0.1 -4.8,1.4 -2,2.3 -4,4.5 -6.2,6.6 -1.6,1.5 -3.5,2.6 -5.2,3.9 -2.6,2 -5.2,4.1 -7.8,6.2 -0.2,0.2 -0.5,0.3 -0.8,0.3 -5,1.1 -9.2,4 -13.9,6 -2.3,1 -4.6,2 -6.9,3 -1.5,0.6 -3.1,0.9 -4.6,1.4 -1.7,0.5 -3.4,1.1 -5.1,1.6 -1.1,0.3 -2.1,0.7 -3.2,1 -1.5,0.4 -3,0.7 -4.6,1 -0.9,0.2 -1.8,0 -2.7,0.3 -8,2.6 -16.1,3.4 -24.5,3.1 -0.4,0 -0.8,0 -1.2,0.1 -3.6,0.3 -7.1,0.9 -10.7,0.8 -6.4,-0.1 -12.8,-0.5 -19.2,-0.9 -3.8,-0.2 -7.6,-0.7 -11.4,-1.3 -3.2,-0.5 -6.3,-1.2 -9.4,-1.8 -1.5,-0.3 -3.1,-0.4 -4.4,-0.9 -8.3,-3.2 -16.6,-6.3 -24.7,-9.7 -4.6,-1.9 -9.1,-4.4 -13.6,-6.7 -1.4,-0.7 -3.1,-1.6 -3.9,-2.8 -2.1,-3.3 -5.5,-4.9 -8.4,-7.1 -1.2,-0.9 -2.3,-1.8 -3.4,-2.7 -0.8,-0.6 -1.5,-1.3 -2.3,-1.9 -1.5,-1.3 -3,-2.7 -4.5,-4 -2.7,-2.6 -5.5,-5.3 -8.2,-8 -1.9,-1.9 -3.8,-3.7 -5.5,-5.9 -2.6,-3.4 -5.1,-6.9 -7.4,-10.4 -1.3,-1.9 -2.4,-4 -3.4,-6.2 -1.2,-2.7 -2.2,-5.5 -3.3,-8.2 -0.2,-0.5 -0.7,-1 -1.1,-1.5 -1.5,-1.7 -2.8,-3.6 -2.7,-6 0,-0.4 -0.2,-0.9 -0.5,-1.1 -2,-1.4 -2.3,-3.4 -2.1,-5.7 0.1,-0.7 0.1,-1.8 -0.4,-2.2 -1.6,-1.6 -2,-3.5 -2.2,-5.5 -0.2,-1.8 -0.1,-3.6 -1.7,-4.9 -0.3,-0.2 -0.4,-0.7 -0.4,-1.1 0.1,-1.7 0.2,-3.5 0.3,-5.5 l -1.4,-4.2 c -0.3,-1.8 -0.5,-3.1 -0.8,-4.4 -0.7,-3.7 -2.3000003,-7.2 -1.9,-11.1 0,-0.4 -0.1000003,-0.8 -0.2000003,-1.1 -2,-4 -0.8,-7.7 0.6000003,-11.4 l -0.1,-3.9 -0.2,-1.1 0.8,-2.3 v -3.3 -2.3 l 1.8,-3.7 0.8,-2.7 c -0.3,-0.6 -0.4,-1.2 -0.2,-1.9 0.4,-1.4 1,-2.8 1.5,-4.2 0.3,-0.8 0.6,-1.6 0.7,-2.4 0,-2.8 0.7,-5.3 2,-7.8 0.6,-1.2 0.9,-2.5 1.3,-3.8 0.4,-1 0.8,-1.9 1.3,-2.8 0.3,-0.6 0.9,-1 1.1,-1.7 1.6,-4.3 3.2,-8.6 4.7,-12.9 0.4,-1 0.7,-2 1.2,-2.9 1.6,-2.7 3.3,-5.4 4.9,-8 1.4,-2.2 2.7,-4.600001 4.3,-6.700001 1.7,-2.2 2.8,-5.1 5.6,-6.4 0.5,-0.2 1.4,-0.3 1.9,-0.1 1.3,0.7 1.9,0.3 2.4,-0.9 0.4,-1.1 0.9,-2.3 1.5,-3.3 1.3,-2 2.7,-3.9 4.2,-5.7 1.6,-1.9 3.3,-3.7 5.2,-5.3 2.7,-2.3 5.7,-4.2 6.7,-8 0.3,-1.1 1.7,-1.9 2.6,-2.8 0.9,-0.9 2.3,-1.5 2.9,-2.5 1.8,-3.4 5.4,-4.3 8.1,-6.4 2,-1.6 4.4,-2.8 6.5,-4.4 1.8,-1.4 3.2,-3.4 5.1,-4.6 3,-1.9 4.7,-5.4 8.599996,-6 0.4,-0.1 0.6,-0.6 1,-0.8 2.100004,-1.4 4.000004,-3 6.200004,-4.2 4.4,-2.4 8.9,-4.6 13.4,-6.9 2.4,-1.2 4.8,-2.5 7.1,-3.8 4.1,-2.4 8.8,-3.2 13.2,-4.3 5,-1.2 9.1,-4.1 13.9,-5.5 0.5,-0.1 0.9,-0.5 1.3,-0.8 1.2,-1.1 2.5,-1.1 3.9,-0.8 4.8,1 9.6,2.1 14.5,0.3 0.5,-0.2 1.1,-0.1 1.7,-0.1 2.3,-0.1 4.6,0.1 6.9,-0.3 3.1,-0.5 6.1,-0.6 9.2,0.1 1.8,0.4 3.7,0.2 5.5,0.3 0.7,0 1.5,0 2.2,0.2 2.2,0.8 4.4,1.4 6.4,2.5 2.4,1.2 4.5,1 6.6,0.4 l 0.5,0.2 c 0.2,0.1 0.3,0.1 0.5,0.1 l 4,0.6 c 0.1,0.5 0.4,0.9 0.8,1.2 0.6,0.5 1.5,0.7 2.3,0.9 0.7,0.2 1.4,0.3 2.1,0.6 3.4,1.5 6.8,2.9 10.1,4.5 4,1.8 7.9,3.7 12.2,4.7 0.3,0.1 0.5,0.2 0.8,0.3 2.7,1.8 5.2,3.9 8.3,5.2 2.2,0.9 4.2,2.2 6.2,3.4 1.8,1.1 3.9,2.1 5.1,3.8 2.5,3.6 5.9,6.1 9.2,8.8 1.9,1.6 3.8,3.2 5.5,5 1.2,1.3 2.1,2.9 3.3,4.1 3.1,3.3 6.4,6.5 9.5,9.7 0.4,0.4 0.8,0.9 0.8,1.4 0.2,2.9 2.6,4.4 3.9,6.6 0.7,1.2 1.6,2.3 2.4,3.4 0.6,0.8 1.2,1.6 1.7,2.4 1.1,1.9 2.2,3.8 3.3,5.7 1.8,3.1 4,6 5.5,9.2 2,4.200001 3.5,8.700001 5.3,13.100001 1.9,4.5 2.7,9.2 2.5,14 0,1 0.4,2.1 0.6,3.1 0.4,1.9 0.9,3.7 1.3,5.6 0.2,0.9 0,2 0.4,2.8 1.4,2.9 1.7,6 1.8,9.2 0.2,5.2 0.5,10.3 1.5,15.4 0.9,4.2 1.4,8.4 -0.5,12.6 -0.2,0.5 -0.2,1.1 -0.2,1.7 0,3 0.3,6.1 -0.9,9 -0.2,0.6 -0.2,1.4 0,2 1.1,3.5 0.4,6.8 -0.7,10.1 -1.2,3.7 -2.2,7.4 -1.2,11.4 0.2,0.7 -0.1,1.9 -0.7,2.5 -2.8,2.9 -3.5,6.5 -4,10.3 -0.2,1.4 -0.6,2.8 -1,4.2 -0.4,1.2 -1.1,2.2 -1.5,3.3 -1.1,3.2 -2.2,6.3 -3.3,9.5 -0.5,1.6 -1.1,3.1 -1.6,4.7 -0.3,1.2 -0.4,2.3 -1.9,2.9 -0.7,0.3 -1.3,1.2 -1.8,1.9 -0.6,0.8 -1.2,1.6 -1.8,2.4 -0.3,0.4 -0.8,0.6 -0.8,1 -0.2,1.9 -1,3.3 -2.6,4.5 -0.5,0.4 -0.5,1.5 -0.5,2.3 0,0.3 1.2,0.7 1.7,0.5 0.7,-0.2 1.5,-0.7 1.8,-1.3 0.8,-2.3 1.1,-2.6 3.4,-2.8 0.1,2.2 -0.4,3 -2.2,4 -0.7,0.4 -1.4,1.1 -1.7,1.8 -1.1,2.2 -2.2,4.5 -4.2,6.2 -1.1,0.9 -2,2.1 -3,3.1 -0.7,0.7 -1.2,1.5 -1.9,2.1 -1.5,1.2 -1.8,3.2 -0.7,4.7 1.1,1.3 3,1.3 4.4,-0.1 0.8,-0.8 1.6,-1.8 2.4,-2.6 1,-0.9 1.2,-2.1 1.6,-3.4 0.5,-1.9 1.7,-3.7 2.7,-5.4 0.2,-0.4 1.2,-0.3 1.7,-0.5 0.8,-0.4 1.9,-0.8 2.3,-1.5 1.8,-2.7 3.5,-5.4 5.2,-8.2 2.3,-4 2.9,-8.5 4.1,-12.8 0.3,-1.2 1.1,-2.4 1.8,-3.5 1,-1.6 2.3,-3.1 3,-4.8 1.4,-3.4 2.6,-6.9 3.9,-10.4 0.6,-1.7 1.1,-3.6 2.1,-5.1 1.1,-1.7 1.4,-3.5 1.6,-5.4 0.4,-3.4 0.6,-6.8 2.5,-9.8 0.7,-1.1 0.8,-2.7 0.9,-4 0.1,-1.6 -0.1,-3.2 0,-4.7 0,-0.6 0.5,-1.5 1,-1.7 2.4,-1.3 2.8,-3 1.2,-5.1 -1.3,-1.7 -1.2,-2.7 -0.2,-4.6 z m -28.4,70.8 c 0.5,-0.9 0.9,-1.9 1.3,-2.8 1.6,2 -0.1,2.3 -1.3,2.8 z"
   id="path68" />
</svg>
