<?xml version="1.0" encoding="UTF-8"?>
<!-- Created with Inkscape (http://www.inkscape.org/) -->
<svg width="910.19" height="201.91" version="1.1" viewBox="0 0 910.19 201.91" xmlns="http://www.w3.org/2000/svg">
 <g transform="translate(-87.169 -42.481)">
  <g transform="translate(23.629 56.021)">
   <path d="m647.81-13.401c0.34934 0.32056 25.367 1.83 41.556 2.5072 15.679 0.65595 37.215 2.6046 51.333 4.6449 4.7667 0.68887 12.445 1.5477 17.064 1.9085 4.6183 0.36081 8.8546 0.93889 9.414 1.2846 0.55942 0.34574 4.1308 0.7707 7.9364 0.94434 3.8056 0.17362 6.9193 0.65846 6.9193 1.0774 0 0.41895 1.35 0.83261 3 0.91927 5.6882 0.29872 15.011 1.7646 19.315 3.0369 2.3734 0.70164 4.6045 0.80786 4.9579 0.23604 0.97667-1.5803 13.445 2.0758 13.041 3.8241-0.2552 1.1054 0.36412 1.1428 2.2457 0.13584 4.0325-2.1581 6.8295-1.7549 5.8334 0.84105-0.64872 1.6905-0.31536 2.0239 1.3752 1.3752 1.2341-0.47354 2.2315-0.21528 2.2315 0.57784 0 0.78879 0.88078 1.0962 1.9573 0.68306 1.0765-0.4131 2.2998-0.19694 2.7184 0.48034 0.77772 1.2584 8.7851 0.24147 9.991-1.2688 0.36667-0.45921 1.4167-0.73986 2.3333-0.62366 0.91666 0.11613 2.7167 0.32845 4 0.47166 2.0513 0.22891 2.0169 0.38408-0.28474 1.284-2.3586 0.92217-2.2534 1.1151 1.0613 1.9471 2.0237 0.50791 4.2103 0.59532 4.8593 0.19425 0.64893-0.40106 1.5746-0.0907 2.0569 0.68984 0.51825 0.83856 3.1467 1.1196 6.4255 0.6869 3.0516-0.4027 7.6484-0.19291 10.215 0.46621 4.1942 1.077 4.3034 1.2122 1.0787 1.3349-5.2518 0.19977-5.7554 2.3932-0.73176 3.1872 2.5382 0.40117 5.5376-0.0871 7.2728-1.184 3.8459-2.4311 5.1286-2.375 3.0469 0.1332-1.6914 2.038-0.67091 2.6456 3.5656 2.1227 0.8611-0.10627 1.9704 1.082 2.4651 2.6407 0.7091 2.2342 1.7181 2.7138 4.7677 2.2662 3.5054-0.51448 4.5002 0.30176 4.0262 3.3038-0.22592 1.4308 2.2046 1.2375 3.123-0.2485 1.0708-1.7327 5.2543-1.2398 7.2055 0.84895 1.3196 1.4126 0.18645 1.6905-6.0996 1.4959-4.2461-0.13147-8.4625-0.79901-9.3698-1.4835-0.90732-0.68448-2.5077-0.91527-3.5563-0.51287-1.0486 0.40241-2.2375-0.13053-2.6418-1.1842-0.40434-1.0537-1.4182-1.9158-2.253-1.9158-0.83481 0-1.1725 0.9-0.75036 2 0.42211 1.1 0.18629 2-0.52401 2-0.71032 0-1.2915-0.65594-1.2915-1.4576 0-0.91438-1.9878-1.228-5.3333-0.84159-2.9333 0.33883-5.3333 0.16472-5.3333-0.38692 0-1.5939-6.1998-2.3478-8.5396-1.0384-1.278 0.71521-2.1271 0.69375-2.1271-0.0537 0-0.68428-1.4818-1.5274-3.293-1.8737-1.8111-0.34621-2.9757-0.11613-2.588 0.51124 0.38775 0.62743-0.26581 1.1408-1.4524 1.1408s-1.8254-0.53713-1.4197-1.1936c0.40573-0.65648-0.20794-1.5565-1.3637-2-3.4707-1.3318-4.5126-0.92701-3.6175 1.4056 0.75001 1.9545 0.0857 2.0932-5.7085 1.1912-3.6065-0.56143-7.7573-1.1068-9.224-1.2119-1.4667-0.1052-2.9667-0.57537-3.3333-1.0449-0.36667-0.46958-3.9667-1.1951-8-1.6123-4.0333-0.41717-8.4688-0.93297-9.8565-1.1462-1.3878-0.21325-2.8156 0.44579-3.173 1.4645-0.39862 1.1362-0.0636 1.4899 0.86672 0.91498 0.8341-0.5155 2.4119-0.0419 3.5063 1.0525 2.7432 2.7432 2.5141 3.2617-1.3426 3.0392-1.8328-0.10574-3.3328-0.64228-3.3333-1.1923-5.2e-4 -0.55-0.72368-0.85-1.607-0.66667-1.958 0.40637-2.3431-3.302-0.47716-4.5942 0.73664-0.51012 0.91039-1.3564 0.38612-1.8807-1.314-1.314-6.433 3.519-5.436 5.1321 0.50947 0.82433-1.3336 0.94423-5.0314 0.32731-3.2095-0.53543-7.3354-1.2133-9.1688-1.5064-8.0684-1.2898-11.46-2.2191-13.256-3.6321-1.4759-1.1612-1.69-1.1255-0.92131 0.15396 1.0366 1.7255-1.9671 2.4112-3.5645 0.81381-0.46907-0.46908-4.6191-1.0494-9.2222-1.2897-4.6032-0.24026-14.258-1.2361-21.456-2.2129-7.1977-0.97681-13.329-1.3832-13.626-0.90303-0.29676 0.48016-3.6378 0.38326-7.4245-0.21534-3.7868-0.5986-9.54-1.2258-12.785-1.3938-3.2449-0.16797-6.2003-0.79148-6.5675-1.3856-0.36717-0.59409-0.0511-1.0802 0.7026-1.0802 0.7536 0 0.98787-0.99628 0.5206-2.214-0.72197-1.8814-1.0136-1.7706-1.9414 0.73754-1.192 3.2224-1.0404 3.2198-36.459 0.62746-6.6-0.48306-35.7-0.7497-64.667-0.59254-66.76 0.36221-77.333 0.58166-77.333 1.6052-1.6e-4 0.45671-5.8327 0.93909-12.961 1.072-7.1285 0.13294-13.128 0.40879-13.332 0.61315-0.20434 0.20435 36.978 0.32196 82.628 0.26136 94.892-0.126 129.65 1.8014 181 10.035 9.1667 1.47 19.967 2.8745 24 3.121 9.7596 0.59663 18.741 2.2004 18.106 3.2332-0.28185 0.45841 4.3044 0.83347 10.192 0.83347 5.8949 0 10.941 0.59904 11.232 1.3333 0.29057 0.73333 4.5007 1.4807 9.3558 1.6609 4.8551 0.18016 9.5886 0.95929 10.519 1.7314 1.1857 0.98402 1.9539 0.97942 2.5687-0.0153 0.59647-0.96509 2.0211-0.79211 4.452 0.54059 4.2747 2.3435 15.478 5.0369 20.531 4.9358 1.9928-0.0399 3.962 0.47564 4.376 1.1456 0.41403 0.6699 1.6336 0.88002 2.7101 0.46693 1.0765-0.41311 1.9573-0.0869 1.9573 0.72489 0 0.8118 0.45 1.4049 1 1.3181 0.55-0.0868 1.9-0.0687 3 0.0405 1.5619 0.15496 1.4634 0.5104-0.44955 1.6225-2.269 1.3191-2.184 1.5618 1.1524 3.2928 4.5949 2.3839 6.8211 2.3657 7.7532-0.0633 0.52062-1.3567 0.10094-1.6863-1.4094-1.1068-1.4326 0.54972-1.8289 0.30442-1.1867-0.73457 0.53025-0.85796 2.1986-1.5599 3.7076-1.5599 1.9738 0 2.5694 0.66571 2.123 2.3727-0.79504 3.0401 1.9776 5.6272 6.031 5.6272 4.4301 0 5.5356 1.5902 2.3068 3.3182-2.2792 1.2198-1.7313 1.4174 3.3685 1.2145 3.3498-0.1332 6.4559-0.60762 6.9024-1.0542 1.4993-1.4993 3.3264-0.83009 2.6372 0.96587-0.37522 0.97779 0.0107 1.8872 0.85734 2.021 0.84675 0.13373 4.1641 0.60386 7.3718 1.0447 4.2818 0.58848 6.0146 1.499 6.5183 3.4251 0.53799 2.0573 0.95584 2.2395 1.9359 0.84416 1.0249-1.4592 1.3764-1.4648 1.9533-0.0312 0.55062 1.3684 1.2339 1.2681 3.1452-0.46158 2.3311-2.1096 2.432-1.9622 2.226 3.2518-0.23403 5.925-0.44089 6.0264-11.514 5.6456-4.3446-0.14941-4.4432-0.0544-2 1.9284 2.4722 2.0063 2.4432 2.0571-0.76355 1.3381-1.8333-0.41108-3.8475-0.75561-4.476-0.76562-0.62846-0.0107-0.79729-0.9182-0.37518-2.0182 0.54569-1.4221-0.0874-1.9696-2.1907-1.8947-1.627 0.0579-2.2082 0.4079-1.2915 0.77778s1.6667 1.2037 1.6667 1.8529c0 1.0917-1.5054 0.85039-6.6667-1.0688-1.1-0.40903-3.1156-0.60264-4.4791-0.43025-1.3635 0.17237-2.1539-0.21272-1.7565-0.85578 0.87175-1.4105-4.4636-1.4383-6.6441-0.0347-0.85048 0.54749-2.5073 0.6267-3.6818 0.176-1.6162-0.6202-1.918-0.25283-1.2412 1.5109 0.63517 1.6553 0.34985 2.1395-0.98488 1.6716-1.0335-0.36232-1.8074-1.5745-1.7198-2.6938 0.11667-1.4904-1.2214-2.0541-5-2.1062-2.8377-0.0392-5.1594 0.5266-5.1594 1.2572 0 0.73064-0.60978 0.95157-1.3551 0.49096-0.74529-0.46061-1.0099-1.396-0.58797-2.0787 0.42191-0.68266-0.16831-1.2412-1.3116-1.2412s-2.0787 0.46588-2.0787 1.0353-2.6981 1.0194-5.9958 1c-3.2977-0.0195-5.9977-0.49038-6-1.0466-3e-3 -0.55621-1.2226-0.25621-2.7116 0.66667-2.2386 1.3874-2.9276 1.3317-3.9796-0.32204-0.84551-1.3292-1.2791-1.441-1.2927-0.33333-0.0107 0.91666-1.0204 1.6667-2.2426 1.6667-2.2022 0-1.3501 1.8462 1 2.1667 0.67223 0.0916 1.3722 0.31904 1.5556 0.50527 0.18334 0.18622 1.8333 0.51117 3.6667 0.72209 1.8333 0.21091 5.1333 0.69219 7.3333 1.0695s5.65 0.72739 7.6667 0.77791c2.0167 0.0505 3.6667 0.73472 3.6667 1.5204 0 2.7452 3.3727 4.5918 8.3333 4.5624 2.75-0.0163 5 0.35632 5 0.82796s1.8192 1.6111 4.0428 2.5321c3.5321 1.4631 4.2438 3.077 1.5128 3.4308-0.48889 0.0633-1.9435 0.57931-3.2325 1.1466-1.4712 0.64748-3.6208 0.19464-5.7744-1.2165-1.8869-1.2363-4.2823-1.9211-5.323-1.5218-1.0407 0.39937-1.8923 0.23975-1.8923-0.35471s-3.45-1.0911-7.6667-1.1037c-4.2167-0.012-8.7985-0.50294-10.182-1.0898-1.8614-0.78961-2.3592-0.57849-1.9149 0.81219 0.3302 1.0335 3.4121 2.7349 6.8486 3.7809 5.6295 1.7134 8.4438 4.0983 4.8362 4.0983-0.77661 0-1.0693 0.55459-0.65033 1.2324 1.0423 1.6865-2.2718 2.1864-10.866 1.6389-5.8709-0.37398-7.4464-0.9862-8.2705-3.214-0.88329-2.3878-1.1304-2.459-1.8676-0.53802-0.46726 1.2177-1.5326 2.214-2.3674 2.214-0.83481 0-1.1717-0.902-0.74866-2.0044 0.6551-1.7072 0.2808-1.6844-2.524 0.15335-1.8112 1.1868-3.2932 1.5888-3.2932 0.89332 0-1.6532-4.4229-1.6783-5.5002-0.0312-1.4593 2.231-6.7936-0.32015-5.8506-2.7982 0.59319-1.5588 0.42282-1.7972-0.57642-0.80669-0.97107 0.96264-4.6395 1.0101-11.63 0.15038-8.9623-1.1022-10.413-0.98014-11.859 0.99782-1.2423 1.6989-1.8041 1.826-2.2826 0.51628-0.48063-1.3157-1.0315-1.3648-2.2696-0.20243-1.1139 1.0458-2.97 1.152-5.8245 0.33333-2.3043-0.66086-6.2583-1.2016-8.7866-1.2016-4.3283 0-4.4457 0.1144-2.0088 1.9576 2.0549 1.5542 2.1624 1.9663 0.52151 2-1.1367 0.0233-2.7867-0.6776-3.6667-1.5576-1.2444-1.2444-1.6-1.2444-1.6 0 0 0.88-0.61142 1.6-1.3587 1.6s-1.0205-1.35-0.60704-3c0.62471-2.4931 0.17844-3.0325-2.6413-3.1923-1.8661-0.10573-3.393 0.33716-3.393 0.98428 0 1.6708-5.6615 0.86132-7.7438-1.1073-2.3766-2.2468-10.759-1.0132-13.188 1.941-1.8263 2.2208-1.905 2.2235-1.2188 0.0411 0.4704-1.4961 0.0311-2.3333-1.2245-2.3333-1.077 0-1.9582 0.6-1.9582 1.3333 0 0.73334-2.1 1.3333-4.6667 1.3333-4.7669 0-6.2644-1.7682-2.6667-3.1488 1.1-0.42211 2-0.1863 2 0.52401 0 0.71024 1.0335 1.2914 2.2967 1.2914 1.8519 0 1.701-0.4172-0.77903-2.1543-2.1344-1.495-3.5012-1.7288-4.466-0.76404-0.88856 0.88856-2.5321 0.95616-4.5543 0.1873-2.2627-0.86028-3.1643-0.73758-3.165 0.43071-5.1e-4 0.89852-1.5005 1.7202-3.3333 1.826-2.1687 0.1252-3.3324-0.51116-3.3324-1.8222 0-1.358-0.86898-1.7872-2.6667-1.3171-1.4667 0.38354-2.6667 0.15352-2.6667-0.51116s-1.8-1.2085-4-1.2085c-2.6667 0-4 0.66667-4 2 0 1.2444-1.2592 2-3.3333 2-2.4444 0-3.3333-0.71111-3.3333-2.6667 0-1.4667-0.86459-2.6667-1.9213-2.6667-2.9107 0-3.7732 2.3859-1.095 3.0293 1.9491 0.46825 1.7814 0.812-0.98368 2.0164l-3.3333 1.4519 3.3333 0.19562c1.8333 0.1076 4.8333 0.47778 6.6667 0.82263 1.8333 0.34485 5.1103 0.60905 7.2822 0.58709 2.1718-0.022 5.277 0.83036 6.9004 1.894 1.8291 1.1985 3.1258 1.4112 3.4098 0.5592 0.3077-0.92313 2.3114-0.95835 6.0996-0.1072 3.2569 0.73175 5.6414 0.76384 5.6414 0.07588 0-0.65537 0.96419-1.1916 2.1427-1.1916 1.3568 0 1.8612 0.73355 1.3752 2-0.6188 1.6126 0.58036 2.0215 6.1907 2.1111 3.827 0.0611 8.3082 0.26084 9.9582 0.44384 1.65 0.18301 3-0.16699 3-0.77778 0-0.61077 0.6-1.1105 1.3333-1.1105 1.9141 0 1.6475 3.6335-0.33333 4.5432-0.91667 0.421-0.32044 0.43177 1.325 0.0239 2.1223-0.52608 2.797-0.23194 2.3217 1.0123-0.45015 1.1786 0.64737 1.8457 3.3459 2.0338 2.9913 0.20856 4.5711-0.5674 6.1922-3.0416 1.197-1.8269 2.4806-3.0174 2.8524-2.6455 0.37183 0.37182-0.0949 1.605-1.0373 2.7405-0.94233 1.1354-1.3764 2.4013-0.96469 2.8131 0.41174 0.41176 1.4184-0.50275 2.2369-2.0322 1.6246-3.0355 4.7719-3.8896 3.6605-0.9933-1.2288 3.2022 0.99524 5.0664 4.4982 3.7706 2.2637-0.8374 4.0988-0.61735 6.1702 0.73989 1.6216 1.0625 3.5747 1.5446 4.3402 1.0715 0.76559-0.47313 1.392 0.13935 1.392 1.3611 0 1.2516 0.7276 1.9239 1.6667 1.5399 0.91667-0.37477 2.6393-1.0735 3.8281-1.5527 1.2385-0.49924 3.0888 0.0561 4.3333 1.3007 1.1946 1.1946 2.1719 1.6058 2.1719 0.91376 0-1.3942 10.245-1.0249 14.979 0.53999 1.6616 0.54931 3.9211 1.0978 5.0211 1.219 8.0617 0.88792 13.529 2.538 14.665 4.4258 1.1784 1.9591 1.5272 1.9842 3.0056 0.21627 2.5344-3.0307 4.3716-2.8847 8.1863 0.65073 1.9121 1.7721 3.4956 2.8006 3.5189 2.2856 0.0233-0.51499 0.92333 0.22835 2 1.6518 1.7796 2.3529 1.9576 2.3745 1.9576 0.23809 0-2.6677 3.2617-6.4534 4.4964-5.2188 0.4476 0.4476 0.0691 1.7342-0.84128 2.8591-1.1228 1.3875-1.1541 1.7449-0.0973 1.1113 0.85678-0.5137 5.0549-0.0232 9.3291 1.0902 4.9552 1.2907 7.9339 1.5364 8.22 0.67807 0.69491-2.0846 2.8932-1.5877 2.8932 0.65392 0 1.1111 1.1852 2 2.6667 2 1.4667 0 2.6667-0.5168 2.6667-1.1484s1.4574-0.86983 3.2388-0.52931c2.0928 0.40007 2.9859 1.2782 2.524 2.4818-0.46855 1.221 0.2259 1.8626 2.0158 1.8626 3.0042 0 5.4367 2.5861 2.6334 2.7996-0.95995 0.0731-0.24536 0.56465 1.588 1.0923 1.9848 0.5713 3.2584 1.8661 3.1482 3.2004-0.10186 1.2326 0.64814 2.241 1.6667 2.241s1.8519-0.71468 1.8519-1.5882c0-0.87349 0.80841-0.4826 1.7965 0.86866 1.2634 1.7278 2.082 1.9948 2.7588 0.89976 1.306-2.1133 3.4447-0.59387 3.4447 2.4473 0 2.1701-0.85032 2.3944-7 1.8471-3.85-0.3427-9.25-0.66059-12-0.70643-3.6556-0.0609-5.0283-0.66836-5.1053-2.2591-0.0881-1.8212-0.22931-1.8499-0.86659-0.17573-0.41873 1.1-1.3431 2.3798-2.0543 2.844-0.71111 0.46417 0.87885 1.5607 3.5333 2.4367 2.6544 0.87604 4.8262 2.2104 4.8262 2.9654s-0.9 1.0272-2 0.60511c-1.1802-0.45288-2-0.016-2 1.0659 0 1.1769 0.95483 1.5836 2.6667 1.136 1.4909-0.38988 2.6667-0.0409 2.6667 0.79149 0 0.81886 0.46163 1.3388 1.0258 1.1555 1.5754-0.51192 8.3075 5.172 8.3075 7.0141 0 0.96366 1.0703 1.3504 2.6176 0.94575 1.4397-0.37649 3.3132 0.15353 4.1633 1.1778 1.1823 1.4246 1.1555 1.8624-0.11424 1.8624-1.3133 0-1.3081 0.42384 0.0249 2.0301 0.97269 1.172 2.7325 1.6976 4.1633 1.2435 1.3631-0.43265 2.4784-0.14619 2.4784 0.63656 0 1.4615-1.2632 1.6989-9.3333 1.7539-8.0246 0.0547-9.3333-0.27213-9.3333-2.3307 0-2.5916-2.5233-2.5916-3.5178 0-0.99296 2.5876-5.8155 2.6087-5.8155 0.0254 0-1.086-1.5-2.3511-3.3333-2.8112-1.8333-0.46013-3.3333-1.3527-3.3333-1.9836s-0.9-0.80158-2-0.37947-2 1.6033-2 2.6248c0 2.0087-1.6259 2.4536-3.203 0.87659-0.53942-0.53942-2.6765-1.066-4.7492-1.1703-2.8608-0.14387-4.1653 0.65434-5.4163 3.3141-1.1221 2.3857-1.8606 2.911-2.3144 1.6462-0.36661-1.0216-1.8879-3.2621-3.3806-4.9789-2.0566-2.3653-3.1412-2.767-4.4773-1.6581-0.96976 0.80483-1.3947 2.0596-0.94424 2.7884 0.51016 0.82545-0.31248 0.966-2.1816 0.37275-1.6503-0.5238-2.7006-0.43808-2.3338 0.19049 1.382 2.3687-1.3263 6.2958-4.6489 6.7407-2.8649 0.38366-3.3342 0.0195-2.7675-2.1475 0.56226-2.1501-0.33854-2.8829-5.117-4.1624-3.1897-0.85411-7.5994-2.479-9.7994-3.6108-8.1762-4.2065-8.6667-4.3775-8.6667-3.0218 0 0.73955-0.63541 1.3446-1.412 1.3446-0.77662 0-1.0679-0.5568-0.64731-1.2373 0.4206-0.68053-0.45271-1.6237-1.9407-2.096s-2.3869-1.374-1.9976-2.0039c0.38928-0.62986 0.098-1.5221-0.64731-1.9827-0.7564-0.46748-1.4234 0.52269-1.5097 2.2412-0.13666 2.72-0.22942 2.768-0.7961 0.41203-0.8904-3.7018-3.0492-5.7786-3.0492-2.9333 0 2.6174-3.3852 2.9413-8.8855 0.85015-2.6297-0.99981-3.8646-0.99981-4.1979 0-0.2597 0.77908-1.6033 1.4165-2.9859 1.4165-1.7172 0-2.2637 0.65156-1.7246 2.0564 0.434 1.131 1.4598 1.8328 2.2796 1.5595 1.6832-0.56106 4.8476 2.1712 4.8476 4.1855 0 1.6079 7.0636 4.0284 13 4.4547 2.3833 0.17115 4.3333 0.78355 4.3333 1.3609 0 2.0515 3.4413 1.0081 5.3333-1.6169 1.0571-1.4667 2.3896-2.6667 2.961-2.6667s1.039 1.2 1.039 2.6667-0.63541 2.6667-1.412 2.6667c-0.77662 0-1.0412 0.6-0.58798 1.3333 0.45323 0.73333 1.9968 1.3333 3.4301 1.3333s3.6479 0.54995 4.9213 1.2221c4.1626 2.1973 11.623 4.7533 12.789 4.3815 0.62719-0.2001 1.8824 0.25204 2.7894 1.0047 0.90694 0.7527 2.0297 0.98787 2.4949 0.52261 0.46527-0.46527 1.2242 0.13994 1.6866 1.3449s1.7265 2.1908 2.8092 2.1908c3.8096 0 0.82248 3.3384-3.3564 3.7512-3.1261 0.30872-4.2306-0.12643-4.2306-1.6667 0-2.3859-3.3882-2.8198-4.7546-0.60879-0.6407 1.0366-1.2324 0.95731-1.9889-0.26667-0.59226-0.9583-3.2173-1.7424-5.8333-1.7424-2.6161 0-4.7565-0.43232-4.7565-0.96072s-1.8052-1.3572-4.0116-1.8418-3.671-1.4323-3.2546-2.1059c0.41635-0.67366 0.12159-1.2248-0.65502-1.2248-0.77662 0-1.412 0.6-1.412 1.3333 0 0.73334-0.63541 1.3333-1.412 1.3333-0.77661 0-1.0412-0.6-0.58797-1.3333 0.45323-0.73333 0.23864-1.3333-0.47687-1.3333-0.7155 0-1.6035 0.75-1.9734 1.6667-0.37843 0.93785-0.71855 0.57493-0.77778-0.82993-0.0917-2.1745-0.39552-2.2605-2.3549-0.66667-1.9873 1.6165-2.1392 1.5358-1.3028-0.69199 0.76043-2.0254 0.58855-2.2246-0.87304-1.0116-1.0009 0.8307-2.2464 1.0838-2.7676 0.56256-0.52129-0.52128-0.55189 0.0839-0.068 1.3449 0.48388 1.261 2.0156 2.2927 3.4038 2.2927 1.3882 0 2.524 0.48261 2.524 1.0725 0 1.6772-10.467 0.994-12.261-0.80034-2.2013-2.2013-4.9987-2.0149-5.9233 0.39452-0.88996 2.3192-7.8614 2.6769-13.13 0.6738-1.9185-0.72941-5.8934-1.6284-8.833-1.9978-4.9847-0.6263-11.715-4.1878-11.811-6.2496-0.023-0.49881-1.8419-0.39069-4.0419 0.24026-2.5218 0.72325-4 0.65978-4-0.17176 0-0.72542-0.73328-0.86576-1.6295-0.31186-2.1188 1.3095-11.198 0.63615-15.594-1.1564-5.6656-2.3102-7.9274-2.1433-7.723 0.56976 0.10706 1.4214 0.91325 2.1902 1.8998 1.8116 2.1527-0.82607 5.7138 0.47863 5.7138 2.0934 0 0.66885-1.35 0.91212-3 0.5406-1.65-0.37151-5.6515-0.96181-8.8923-1.3118-3.2408-0.34996-6.3094-1.3112-6.8192-2.136-0.5098-0.82486-2.6586-1.3181-4.7752-1.0961s-4.5438-0.0262-5.3938-0.55154c-0.85005-0.52536-2.4946-0.591-3.6546-0.14586-1.2764 0.48981-2.4382-0.0483-2.9427-1.363-0.60329-1.5722-1.2965-1.7882-2.5089-0.782-0.92142 0.7647-2.8014 0.99929-4.1776 0.52132-2.4096-0.83686-2.4084-0.79581 0.0347 1.108 1.3954 1.0874 2.1416 2.6169 1.6583 3.3988-0.48326 0.78195-0.15448 1.6631 0.73064 1.9582 1.2268 0.40895 1.2075 0.78477-0.0815 1.5814-1.1126 0.6876-1.9412 0.0871-2.4232-1.7559-0.40284-1.5404-1.4124-2.8783-2.2436-2.9729-9.9533-1.1337-12.64-0.84124-11.884 1.2936 0.46612 1.3152-0.9503 0.59631-3.494-1.7734-2.6606-2.4787-4.0457-4.873-3.6638-6.3333 0.38656-1.478-0.13361-2.348-1.4037-2.348-1.4065 0-1.7207 0.70693-1.037 2.3333 2.2288 5.3025 2.282 8.143 0.14649 7.8296-2.5909-0.38027-4.5454-2.1629-2.3714-2.1629 1.6406 0 1.1418-6.2549-0.62434-7.8303-0.51574-0.46003-0.59764 0.118-0.18198 1.2845 0.41566 1.1665 0.29458 2.8671-0.26904 3.7791-0.73596 1.1908-1.8286 0.63631-3.8766-1.9674-2.142-2.7231-2.8519-3.0634-2.8519-1.367 0 1.2422-0.58616 1.8962-1.3026 1.4535-1.6578-1.0246-12.031 1.7179-12.031 3.1808 0 0.60338-1.5748 0.79599-3.4997 0.42804-2.9204-0.55827-3.1394-0.87065-1.3228-1.8873 1.1973-0.67004 2.8298-0.81473 3.6278-0.32152 0.89412 0.55259 1.2679-0.0536 0.97407-1.5796-0.36375-1.8888-1.8834-2.5747-6.405-2.8911-3.2605-0.22813-6.7685-1.1122-7.7956-1.9646-1.4439-1.1984-2.2127-1.0967-3.3898 0.44836-1.6052 2.1069-6.7688 1.918-5.46-0.19977 0.41893-0.67784 0.16168-1.2324-0.57166-1.2324-0.73333 0-1.7437 0.66406-2.2453 1.4757-0.6389 1.0338-1.2386 0.94732-2.0024-0.28862-0.61004-0.98707-0.46525-2.5175 0.32867-3.4742 1.0977-1.3227 0.64938-1.6462-1.9802-1.4285-1.8696 0.15473-3.1459 0.69117-2.8363 1.1921 0.6278 1.0158-3.4387 3.0952-5.2462 2.6826-0.63675-0.14534-0.77532 1.2594-0.30792 3.1217 0.86262 3.437-1.009 4.7716-2.4109 1.7192-0.421-0.91666-0.40804-0.24568 0.0288 1.4911 0.57706 2.2942 0.30022 2.9931-1.0123 2.5556-0.99363-0.33121-1.8066-1.2522-1.8066-2.0466 0-0.79444-0.45-1.8944-1-2.4444-2.0137-2.0137-0.92044-3.3779 2-2.4956 2.3997 0.72502 2.6772 0.5669 1.3866-0.79019-2.1304-2.2403-9.7202-2.4509-9.72-0.26982 6e-5 0.91667-1.1999 1.6667-2.6666 1.6667-1.6164 0-2.7022 0.91897-2.7569 2.3333-0.0719 1.8577-0.38516 1.7218-1.5371-0.66666-1.682-3.4875-3.706-3.9558-3.706-0.85735 0 1.4226-0.72202 1.8656-2.1485 1.3182-1.5373-0.58993-1.9285-0.25125-1.3752 1.1907 0.77738 2.0258-0.62438 2.756-2.2226 1.1578-0.47154-0.47155-4.3338-0.95101-8.5828-1.0655s-8.6132-0.76944-9.6982-1.4556c-2.295-1.4512-2.7517-1.5593-7.6394-1.8087-2.7008-0.1378-3.1717-0.50044-1.7876-1.3766 1.0335-0.65426 2.8335-0.89977 4-0.54558 1.7771 0.5396 1.7598 0.41039-0.1068-0.79718-1.5397-0.99607-3.3244-1.0242-5.7786-0.0911-4.4449 1.69-6.6659 0.47928-4.004-2.1826 1.7422-1.7422 1.7562-2.2642 0.10547-3.915-2.6715-2.6715-3.4286-2.3876-3.4286 1.2859 0 3.1607-3.4268 5.8621-4.2612 3.3591-0.27512-0.82535-1.9577-0.76904-4.606 0.15415-3.2332 1.1271-5.2073 1.0222-8.7688-0.46592-3.1492-1.3158-5.3198-1.5156-6.8945-0.63433-1.264 0.70736-3.3117 0.83951-4.5505 0.29364-3.4699-1.529-9.5318-1.7298-10.388-0.3441-0.45432 0.7351-1.5129 0.62482-2.5911-0.26994-1.0026-0.83208-2.4077-1.1514-3.1225-0.70967-0.71479 0.44177-1.6436 0.24654-2.0642-0.43384-0.42049-0.68037-2.412-1.0543-4.4254-0.83093-2.0135 0.22337-4.1018-0.27975-4.6405-1.118-0.72471-1.1276-0.9849-1.1143-1 0.0512-0.0312 2.406-19.614 2.0726-20.544-0.34972-0.3957-1.0312-1.6257-1.4955-2.784-1.051-1.1413 0.43796-4.8997 0.085-8.3521-0.78429-4.4052-1.1092-6.419-1.1546-6.7532-0.15209-0.26189 0.78566-1.3616 1.4285-2.4438 1.4285-1.0822 0-1.5968 0.6-1.1435 1.3333 0.45324 0.73326-0.14676 1.3333-1.3333 1.3333s-1.7866-0.6-1.3333-1.3333c0.45323-0.73333-0.11133-1.3333-1.2546-1.3333-1.1433 0-2.0879-0.75-2.0991-1.6667-0.0133-1.0792-0.36571-1.1784-1-0.28148-0.53878 0.76185-3.2692 1.3332-6.0676 1.2697-2.7984-0.0635-5.4234 0.42722-5.8333 1.0905-0.42148 0.68198-1.1197 0.60022-1.6069-0.18818-0.5708-0.92358-2.3954-0.65129-5.4059 0.8067-3.353 1.6239-4.6845 1.7801-5.0793 0.59578-0.37797-1.1339-1.2579-1.2182-2.9975-0.28717-3.0531 1.634-6.7215 0.38377-5.8139-1.9814 0.37035-0.96513 0.0324-2.1509-0.75086-2.635-0.78332-0.48412-1.4242 0.074-1.4242 1.2403 0 1.1663-0.89656 2.4646-1.9924 2.8851-1.0958 0.4205-1.6604 1.3017-1.2546 1.9582 0.40574 0.65649 0.17723 1.1936-0.50778 1.1936-0.68502 0-2.2068-1.95-3.3817-4.3333-1.1749-2.3833-2.1498-3.6652-2.1665-2.8487-0.0167 0.81655-1.3804 1.3786-3.0304 1.2491-1.65-0.12955-4.05 0.27349-5.3333 0.89562-1.2833 0.62214-2.3333 0.62402-2.3333 4e-3 0-1.2845-21.815-0.98388-23.941 0.32989-0.76589 0.47335-1.3925 0.18479-1.3925-0.64124 0-0.90684-1.0819-1.1585-2.7307-0.6352-1.5018 0.47667-3.5948 0.14953-4.6509-0.72699-1.5301-1.2698-2.0966-1.1341-2.7882 0.66831-0.69154 1.8021-1.1013 1.9004-2.0158 0.4835-0.9394-1.4556-1.3862-1.4154-2.4607 0.22154-0.7221 1.1-1.3221 1.4765-1.3333 0.83674-0.0107-0.63979-0.86207-0.46475-1.8908 0.38898-1.4253 1.1829-1.9957 1.1762-2.3971-0.0279-0.37124-1.1137-1.2952-1.1927-3.1297-0.26765-2.2162 1.1175-4.5425 1.2192-11.698 0.51152-0.60238-0.0596-0.12387-1.0798 1.0635-2.267 3.5383-3.5383 0.98515-3.9042-2.8058-0.40209l-3.4937 3.2275 0.92213-3c0.799-2.5994 0.44015-3-2.6874-3-1.9852 0-4.4746 1.05-5.532 2.3333-1.831 2.2222-1.8876 2.2222-1.1888 0 0.56114-1.7847-0.0305-2.3333-2.516-2.3333-2.444 0-3.0447 0.53402-2.4231 2.1539 0.63927 1.6659 0.2355 1.9663-1.7824 1.3258-1.6522-0.5244-3.638 0.1307-5.4153 1.7865-2.3097 2.1518-2.9377 2.2723-3.5484 0.68083-0.55195-1.4383-2.2051-1.7512-6.4531-1.2214-3.1411 0.39174-5.9111 1.2887-6.1555 1.9933-0.54077 1.5588-4.2222 1.7216-4.2222 0.18684 0-0.60186-3.15-0.68853-7-0.1926-3.85 0.49594-8.6524 0.42956-10.672-0.1475-3.1442-0.89839-3.9511-0.53529-5.6133 2.5259-1.0677 1.9663-1.9653 2.8097-1.9946 1.8742-0.0423-1.3452-0.82021-1.3146-3.72 0.14622-8.1872 4.1244-13.4 3.9409-9.3333-0.3285 1.3633-1.4314 1.06-1.5616-1.6667-0.71568-1.8333 0.5688-5.354 1.1102-7.8237 1.2032-3.2183 0.12113-5.5465 1.351-8.2185 4.3416-2.0505 2.2949-4.054 3.8468-4.4521 3.4486-0.39817-0.39817-1.783-0.31755-3.0774 0.17916-1.8923 0.72615-1.9961 1.124-0.52988 2.0302 1.1164 0.68999 1.4619 2.0696 0.8909 3.5576-0.73748 1.9218-1.1655 2.0538-2.0452 0.63041-0.61189-0.99007-1.7796-1.3878-2.595-0.88394-0.81532 0.50389-1.4824 0.33076-1.4824-0.38474s0.55564-1.5009 1.2348-1.7454c1.8949-0.68206 3.3331-7.7778 1.5765-7.7778-0.81284 0-1.4779 0.67347-1.4779 1.4966 0 1.0718-0.53708 1.0509-1.8924-0.0739-1.495-1.2407-2.174-1.0673-3.2333 0.82563-0.73753 1.3179-1.7574 1.9797-2.2664 1.4708-0.50897-0.50897-1.8286-0.0222-2.9325 1.0817-1.2431 1.2432-3.8471 1.8534-6.8413 1.6032-3.7144-0.31037-5.3994 0.2939-7.2743 2.6088-1.3421 1.657-2.9963 2.669-3.6761 2.2488-0.67979-0.42014-1.5943 0.16988-2.0322 1.3111-0.53515 1.3946-1.7944 1.8245-3.8402 1.311-2.2116-0.55509-3.6319 0.0755-5.1943 2.3062-1.7356 2.4779-2.1504 2.6271-2.1504 0.77346 0-3.9196-4.0827-2.2816-5.907 2.37l-1.0458 2.6668-0.99293-2.6667c-0.99256-2.6657-0.99326-2.6657-1.842 3e-3 -1.0725 3.3725-6.2122 6.9092-6.2122 4.2746 0-0.95955 0.68643-2.4311 1.5254-3.27 1.145-1.145 0.81246-1.339-1.3333-0.77782-3.6154 0.94546-3.7944-1.7534-0.19207-2.8968 1.4667-0.4655 2.6667-1.7794 2.6667-2.9198 0-1.684-0.37247-1.7643-1.983-0.42765-1.0906 0.90517-2.8906 1.2975-4 0.87177-1.1093-0.42569-2.017-0.25959-2.017 0.36911 0 0.62871-2.25 1.5508-5 2.0492s-6.4395 1.2526-8.1989 1.6762c-2.2062 0.53111-2.9059 0.29599-2.2546-0.7577 0.58939-0.95365-0.0579-1.5278-1.7224-1.5278-1.4667 0-3.0435-0.60979-3.5042-1.3551-0.46061-0.7453-1.396-1.0099-2.0787-0.58798-0.68265 0.42191-1.2412-0.16831-1.2412-1.3116 0-1.1433-0.75-2.1701-1.6667-2.2818-0.91666-0.11169-2.2667-0.34249-3-0.51287-0.73333-0.17038-1.9831-0.37899-2.7772-0.46358-2.0614-0.21959-1.3994-5.4699 0.87097-6.9067 1.3118-0.83017 1.39-1.2127 0.25083-1.2267-0.91045-0.0112-2.4048 1.1796-3.3207 2.6462s-2.1564 2.6667-2.7566 2.6667c-0.60022 0-0.72048-0.6-0.26726-1.3333 0.45323-0.73333 0.18864-1.3333-0.58797-1.3333s-1.412 0.6-1.412 1.3333c0 0.73334-0.45 1.2623-1 1.1754-3.1828-0.50255-5.8766 0.49479-8.2673 3.0609-2.9705 3.1885-5.4729 2.3988-2.7594-0.87074 2.218-2.6725-0.12654-2.7109-5.2038-0.0854-5.2391 2.7092-6.1677 0.96266-1.872-3.521 3.9764-4.1505 3.3622-5.0972-0.92492-1.4258-1.4985 1.2833-4.0554 2.3989-5.6819 2.4791-1.6265 0.0802-3.9299 0.56468-5.1187 1.0767-1.2553 0.54065-2.9961 0.0962-4.1524-1.0601-1.3731-1.3731-2.4195-1.5624-3.3719-0.61001-0.95237 0.95238-2.1982 0.56371-4.0143-1.2524-1.4483-1.4483-3.3225-2.863-4.1648-3.1438-0.84228-0.28076-1.8938-2.7436-2.3367-5.4729-0.71264-4.3915-0.30106-5.4334 3.5778-9.0568 3.0372-2.8371 4.6831-3.609 5.3601-2.5137 0.67633 1.0943 1.428 0.73809 2.4425-1.1577 1.4007-2.6173 6.3019-4.4386 13.488-5.012 5.1682-0.41241 5.3333-0.48981 5.3333-2.4994 0-2.0627 9.4436-4.6778 20.667-5.723 3.6667-0.34146 6.8773-1.2003 7.1348-1.9085 0.25747-0.70823 1.8217-2.6057 3.4761-4.2167 3.7856-3.6861 5.3999-7.7719 2.6546-6.7184-1.0626 0.40778-1.9321 1.5772-1.9321 2.5988s-1.05 1.9033-2.3333 1.9594c-1.2833 0.0561-3.3833 0.30302-4.6667 0.5487-2.738 0.52413-3.0107-0.76214-0.66667-3.1451 1.3442-1.3666 0.91888-1.5095-2.1989-0.73888-2.7549 0.68095-3.5942 0.51652-2.9213-0.57232 0.59103-0.95629-0.0671-1.5278-1.7593-1.5278-1.6736 0-2.4495-0.66182-2.0369-1.7372 0.44914-1.1704-1.5221-2.2982-6.0418-3.4565-3.6897-0.94564-6.7085-2.1676-6.7085-2.7154 0-1.1659 6.0399-4.0908 8.4475-4.0908 0.91044 0 3.971-1.1806 6.8011-2.6235 2.8302-1.4429 5.507-2.4228 5.9486-2.1774 0.44155 0.24532 2.6028-0.65721 4.8028-2.0056 7.4418-4.5612 14.664-8.2572 15.094-7.724 0.23492 0.29176 1.0399-0.56452 1.7889-1.9029 1.7432-3.1149 0.45395-4.4492-2.1838-2.2601-1.1177 0.92763-2.0322 1.2397-2.0322 0.69342s-0.99221-0.16972-2.2049 0.83675c-1.2127 1.0064-2.419 1.6678-2.6806 1.4696-0.26164-0.1982-2.1424 0.50155-4.1796 1.555-3.7807 1.9551-17.844 4.9883-18.792 4.053-0.28784-0.2841 0.23563-1.431 1.1633-2.5488 1.7905-2.1575 1.3407-2.3363-6.5244-2.5936-2.3802-0.0779-3.2787-0.91492-3.452-3.2157-0.17036-2.2625 1.8263-4.9241 7.3252-9.7644 8.3828-7.3788 9.3246-7.9742 25.002-15.804 6.045-3.0192 11.554-5.1417 12.241-4.7167 0.68767 0.42501 1.5924 0.21928 2.0104-0.45717 0.41807-0.67646 1.8582-0.94278 3.2002-0.59182 1.6422 0.42943 4.7303-1.5693 9.4437-6.1123 5.757-5.5488 7.4428-6.5154 9.471-5.4299 4.1858 2.2402 9.0458 1.5843 9.976-1.3462 0.46551-1.4667 1.4059-2.7417 2.0898-2.8333 0.68391-0.0916 1.8654-0.24167 2.6254-0.33333 0.7601-0.0916 1.8259-0.885 2.3685-1.763 0.65097-1.0533 1.6549-1.1736 2.9514-0.35376 5.029 3.1804 16.177-0.10853 21.472-6.3345 2.1299-2.5046 4.1646-3.573 6.2435-3.2784 3.181 0.45082 15.514-3.2816 18.738-5.6707 2.2232-1.6477 10.309-4.736 14.845-5.6698 1.8333-0.37741 6.8215-2.4216 11.085-4.5426 4.2633-2.121 11.163-4.41 15.333-5.0866 4.17-0.67663 9.3819-1.6611 11.582-2.1876 3.0933-0.74038 3.6592-0.59265 2.4964 0.65174-1.387 1.4843-8.5705 3.8058-14.184 4.5838-1.2948 0.17945-3.0476 1.0197-3.895 1.8672-1.1656 1.1656-0.42996 1.4238 3.0208 1.0603 8.3065-0.87516 20.548-3.8682 21.46-5.2471 0.59196-0.89449 1.567-0.8026 2.8587 0.26941 1.5476 1.2844 2.341 1.2664 3.7683-0.0857 0.99436-0.94199 3.0079-1.8654 4.4746-2.0521 8.6306-1.0986 11.943-1.8403 13.319-2.9823 1.0006-0.83038 2.0618-0.7638 3.0148 0.18918 0.89356 0.89356 2.9478 1.0809 5.2349 0.47745 2.0704-0.54625 13.964-1.1698 26.431-1.3857 12.467-0.2159 24.767-0.79071 27.333-1.2774 2.5667-0.48664 5.5667-0.89551 6.6667-0.90857 1.1-0.0133 9.2-0.82476 18-1.8038 8.8-0.979 20.8-2.1528 26.667-2.6084 5.8667-0.45561 19.367-1.6827 30-2.7268 43.245-4.2465 93.146-6.4104 151.11-6.5529 18.211-0.0448 33.211 0.0107 33.333 0.1232zm115 26.653c-0.46239 1.205-0.52657 2.505-0.14265 2.8889 0.38393 0.38391 0.69805-2e-3 0.69805-0.85752 0-0.85556 0.63541-1.5556 1.412-1.5556 0.77661 0 0.98858 0.75 0.47105 1.6667-0.72119 1.2774-0.54872 1.3045 0.73847 0.11613 0.92369-0.85276 1.2763-2.2028 0.78358-3-1.2965-2.0978-2.9929-1.7802-3.9605 0.74133zm-7.001 1.3639c1.0388 1.0388 4.845-1.2151 4.0967-2.4258-0.4637-0.75027-1.5504-0.61713-2.6912 0.32971-1.0524 0.87344-1.6849 1.8167-1.4055 2.0961zm-290.26-1.5548c-0.42211 1.1-0.18629 2 0.52401 2 0.71032 0 1.2915-0.9 1.2915-2s-0.23582-2-0.52402-2c-0.28821 0-0.86937 0.9-1.2915 2zm-12.851 0.66667c0 0.73333 0.6 1.3333 1.3333 1.3333 0.73334 0 1.3333-0.6 1.3333-1.3333s-0.6-1.3333-1.3333-1.3333c-0.73333 0-1.3333 0.6-1.3333 1.3333zm345 3.8889c-0.55 0.0611-1 1.1311-1 2.3778 0 1.6752 0.39028 1.8764 1.4958 0.77085 0.82269-0.82269 2.3227-1.1785 3.3333-0.79068 1.0106 0.38783 1.8375 0.0598 1.8375-0.72901 0-0.78878 1.05-1.0964 2.3333-0.68354 1.6735 0.53832 1.849 0.40194 0.62067-0.4823-0.94197-0.6781-3.042-1.0847-4.6667-0.90355-1.6247 0.18113-3.404 0.37933-3.954 0.44045zm-5.9108 1.6944c0.42563 1.0636 0.74157 0.74771 0.80555-0.80556 0.0579-1.4055-0.25723-2.193-0.7003-1.75-0.44305 0.44307-0.49041 1.5931-0.1052 2.5556zm76.911 25.313c0 0.69338 0.6 0.88987 1.3333 0.43664 0.73333-0.45322 1.3333-0.16752 1.3333 0.6349 0 1.0458 0.7552 1.0548 2.6667 0.0317 3.9296-2.1031 3.243-3.6228-1.3333-2.9511-2.2 0.32289-4 1.1544-4 1.8478zm29.333 10.94c0 0.27686 1.05 1.3269 2.3333 2.3333 2.1148 1.6585 2.1619 1.6113 0.50341-0.50341-1.7418-2.221-2.8367-2.9273-2.8367-1.8299zm32 15.497c0 0.73334 0.63541 1.3333 1.412 1.3333s1.0412-0.6 0.58798-1.3333c-0.45323-0.73333-1.0886-1.3333-1.412-1.3333s-0.58797 0.6-0.58797 1.3333zm-769.97 11.492c-1.1873 1.1873-1.8135 2.504-1.3915 2.9259s2.0839-0.54947 3.6931-2.1587 2.2354-2.9259 1.3915-2.9259-2.5058 0.97142-3.6931 2.1587zm683.3 0.50793c0 0.73334-0.93541 1.3333-2.0787 1.3333s-1.7079-0.6-1.2546-1.3333c0.45322-0.73333 0.18864-1.3333-0.58798-1.3333-1.6329 0-1.7994 1.4171-0.39161 3.3333 1.428 1.9436 5.6462 2.3788 5.6462 0.58247 0-0.84395 0.9-1.1891 2-0.76696 2.0324 0.77989 2.7307-0.6404 1.1111-2.26-1.3633-1.3633-4.4444-1.0552-4.4444 0.44444zm-121.33-0.74536c0 0.32339 0.6 0.9588 1.3333 1.412 0.73334 0.45323 1.3333 0.18864 1.3333-0.58797 0-0.77662-0.6-1.412-1.3333-1.412-0.73333 0-1.3333 0.26459-1.3333 0.58797zm-570.67 2.0787c0 0.73333 0.26459 1.3333 0.58797 1.3333 0.32339 0 0.9588-0.6 1.412-1.3333 0.45323-0.73334 0.18864-1.3333-0.58797-1.3333-0.77662 0-1.412 0.6-1.412 1.3333zm700 1.3957c0 2.2003 2.959 2.8834 4.7455 1.0954 1.542-1.5432 1.3168-1.8541-1.4613-2.0167-1.8063-0.10573-3.2842 0.30883-3.2842 0.92131zm-120.67 1.271c-0.45323 0.73334-0.22404 1.3333 0.50929 1.3333s1.7042-0.6 2.1574-1.3333c0.45323-0.73333 0.22404-1.3333-0.50929-1.3333s-1.7042 0.6-2.1574 1.3333zm-20 0c-0.45323 0.73334 0.14677 1.3333 1.3333 1.3333s1.7866-0.6 1.3333-1.3333c-0.45322-0.73333-1.0532-1.3333-1.3333-1.3333s-0.88011 0.6-1.3333 1.3333zm-564.84 1c-1.6585 2.1148-1.6113 2.1619 0.50341 0.50342 1.2833-1.0065 2.3333-2.0565 2.3333-2.3333 0-1.0974-1.0949-0.39108-2.8367 1.8299zm542.84 1.1427c0 0.2882 1.2354 0.52401 2.7454 0.52401 1.5099 0 2.3907-0.5738 1.9573-1.2751-0.71148-1.1512-4.7026-0.51374-4.7026 0.7511zm69.333 11.715c0 0.28821 0.93116 0.88133 2.0692 1.3181 1.1866 0.45532 1.7218 0.2318 1.2546-0.52402-0.78301-1.2669-3.3239-1.8739-3.3239-0.79405zm-139.33 20.809c3.6418 1.565 4.6667 1.565 4.6667 0 0-0.73333-1.65-1.2912-3.6667-1.2396-3.2491 0.0831-3.363 0.2242-1 1.2396zm44.667 0.58797c0 0.32339 0.6 0.9588 1.3333 1.412 0.73333 0.45323 1.3333 0.18864 1.3333-0.58797 0-0.77662-0.6-1.412-1.3333-1.412-0.73334 0-1.3333 0.26459-1.3333 0.58797zm28.825 4.148c-0.45532 1.1866-0.2318 1.7218 0.52401 1.2546 0.72494-0.44803 1.3181-1.3792 1.3181-2.0692 0-1.9179-0.95569-1.4953-1.8421 0.81461zm-9.4482 3.1944c-0.42954 0.695 0.43505 1.0294 1.9213 0.74321 1.4863-0.28623 2.7023 0.0263 2.7023 0.69452 0 0.66821 1.0061 0.82884 2.2359 0.35696 2.0006-0.76771 1.9655-0.96388-0.33334-1.8644-3.618-1.4174-5.6202-1.396-6.5261 0.0697zm-12.71 0.8918c0 0.28117 1.5 0.51122 3.3333 0.51122 1.8333 0 3.3333-0.5168 3.3333-1.1484s-1.5-0.86169-3.3333-0.51122c-1.8333 0.35046-3.3333 0.86725-3.3333 1.1484zm95.028 1.3168c0.44307 0.44306 1.5931 0.49042 2.5556 0.1052 1.0636-0.42562 0.74771-0.74157-0.80556-0.80554-1.4056-0.0579-2.193 0.25722-1.75 0.70029zm-15.694 1.8611c3.7214 1.5992 7.655 1.5992 6.6667 0-0.45323-0.73333-2.7386-1.2912-5.0787-1.2396-3.5864 0.0789-3.8358 0.27368-1.588 1.2396zm-34.555 0.85525c-0.70223 1.83-0.50712 1.9125 1.1907 0.50342 2.3136-1.9202 2.5544-2.692 0.83984-2.692-0.65488 0-1.5686 0.98486-2.0305 2.1886zm67.221 0.47808c0 0.73334 0.6 1.3333 1.3333 1.3333s1.3333-0.6 1.3333-1.3333c0-0.73333-0.6-1.3333-1.3333-1.3333s-1.3333 0.6-1.3333 1.3333zm102.67 1.4966c0 0.97524-0.78589 0.85911-2.2559-0.33333-1.5329-1.2434-1.935-1.2957-1.2546-0.16326 0.73041 1.2158-0.35978 1.6667-4.0298 1.6667-4.6926 0-4.8818 0.14929-2.8123 2.2188 1.7631 1.7631 2.6167 1.8886 4.156 0.61101 1.212-1.0058 2.1106-1.1048 2.4002-0.26442 0.25465 0.73884 2.5483 1.5139 5.0971 1.7223 3.368 0.27542 4.6595-0.16746 4.7273-1.621 0.0512-1.1 0.81594-1.85 1.6993-1.6667s1.6061-0.33085 1.6061-1.1426c0-0.81179-0.80442-1.1673-1.7876-0.79003-0.98317 0.37728-2.6332 0.15065-3.6667-0.5036-2.5533-1.6164-3.8791-1.5254-3.8791 0.2662zm4 2.346c0 0.73333-0.6 1.7042-1.3333 2.1574-0.73333 0.45323-1.3333 0.22404-1.3333-0.50929s0.6-1.7042 1.3333-2.1574c0.73333-0.45323 1.3333-0.22404 1.3333 0.50929zm-141.84-1.9121c0.6014 1.5672-0.54002 1.8352-6.0646 1.4239-3.9955-0.29747-6.4883 7e-3 -6.0373 0.7361 0.42244 0.68352-0.16733 1.2428-1.3106 1.2428s-2.0787 0.58117-2.0787 1.2915c0 0.71031 0.9 0.94612 2 0.52401 1.1094-0.42573 2-0.0376 2 0.87178 0 1.2876 0.42902 1.2832 2-0.0207 1.5956-1.3242 2.4044-1.3242 4 0 1.1 0.91292 2 1.2129 2 0.66667 0-0.54626 0.87372-0.26807 1.9416 0.6182 1.0679 0.88625 2.5679 1.2243 3.3333 0.75122s1.4009-0.0747 1.4122 0.88522c0.0148 1.2708 0.37736 1.2016 1.3333-0.25464 0.90312-1.3758 1.6251-1.5429 2.3129-0.53554 0.55 0.80544 3.55 1.4054 6.6668 1.3333 5.7114-0.13214 8.0342 2.3879 3.3332 3.6164-1.8212 0.47593-1.6993 0.64371 0.55556 0.76443 1.5889 0.0851 3.0889-0.4347 3.3333-1.155 0.7667-2.2594 8.4666 0.63442 8.2592 3.104-0.10187 1.2131 0.49815 2.2149 1.3333 2.2261 0.93798 0.0127 0.83871 0.45135-0.25968 1.1476-1.1743 0.74442-0.38916 1.0771 2.3121 0.97959 2.8243-0.10194 3.9937-0.7629 3.7782-2.1355-0.17164-1.0934 1.0379-2.5856 2.6879-3.3162 3.7456-1.6584 3.7356-1.8368-0.37165-6.6127-3.8157-4.4369-8.622-5.6803-7.6544-1.9802 0.46245 1.7684-0.19348 2.2506-2.8524 2.0968-2.0806-0.1204-3.4615-0.9947-3.4744-2.1998-0.0133-1.2106-0.40803-1.4583-1.0009-0.62776-0.53878 0.75473-2.1796 1.2371-3.6463 1.0719-8.2686-0.93133-10.59-1.5462-11.05-2.9275-0.28109-0.84328-0.95055-1.2616-1.4877-0.92966-0.5371 0.33196-1.8183-0.56431-2.8471-1.9917-2.17-3.0107-5.5511-3.5149-4.4573-0.66469zm35.772 7.2889c0.4293 0.69462 0.21222 1.6142-0.4824 2.0435-0.69463 0.42931-1.6142 0.21223-2.0435-0.4824s-0.21222-1.6142 0.4824-2.0435c0.69463-0.42931 1.6142-0.21223 2.0435 0.4824zm-61.903-7.1872c0.92763 1.1177 1.9612 1.7576 2.2968 1.422 0.92465-0.92467-0.95407-3.4543-2.5655-3.4543-0.88413 0-0.78297 0.76504 0.26869 2.0322zm-15.241-0.89151c-0.38776 0.6274 0.77684 0.85746 2.588 0.51124s3.293-0.85954 3.293-1.1407c0-1.0317-5.1982-0.47525-5.881 0.62949zm82.242 0.99818c0.44306 0.44305 1.5931 0.49041 2.5556 0.1052 1.0636-0.42563 0.7477-0.74158-0.80556-0.80555-1.4056-0.0579-2.1931 0.25723-1.75 0.70029zm50.972 1.8611c-0.45322 0.73334-0.18864 1.3333 0.58798 1.3333 0.77661 0 1.412-0.6 1.412-1.3333 0-0.73333-0.26458-1.3333-0.58797-1.3333s-0.9588 0.6-1.412 1.3333zm0.0596 6.2084c2.509 1.8346 4.0854 1.5169 2.7992-0.56417-0.40784-0.65991-1.7473-1.1998-2.9766-1.1998-2.0018 0-1.9833 0.18408 0.17734 1.764zm55.274-0.35109c0 0.28821 0.9 0.86937 2 1.2915 1.1 0.42211 2 0.1863 2-0.52401 0-0.71032-0.9-1.2915-2-1.2915s-2 0.23581-2 0.52401zm-84.667 2.1426c-0.45323 0.73334-0.18864 1.3333 0.58797 1.3333 0.77662 0 1.412-0.6 1.412-1.3333 0-0.73333-0.26459-1.3333-0.58797-1.3333-0.32339 0-0.9588 0.6-1.412 1.3333zm-436 0c-0.45323 0.73334-0.18864 1.3333 0.58797 1.3333s1.412-0.6 1.412-1.3333c0-0.73333-0.26459-1.3333-0.58798-1.3333-0.32338 0-0.9588 0.6-1.412 1.3333zm8.6667 1.3333c0 0.73333 0.26459 1.3333 0.58798 1.3333 0.32338 0 0.9588-0.6 1.412-1.3333 0.45323-0.73334 0.18864-1.3333-0.58797-1.3333s-1.412 0.6-1.412 1.3333zm-41.333-0.74536c0 0.32338 0.6 0.9588 1.3333 1.412 0.73334 0.45323 1.3333 0.18864 1.3333-0.58797s-0.6-1.412-1.3333-1.412c-0.73333 0-1.3333 0.26459-1.3333 0.58798zm545.33 2.0787c0 0.73333 0.26458 1.3333 0.58797 1.3333s0.9588-0.6 1.412-1.3333c0.45322-0.73333 0.18864-1.3333-0.58798-1.3333-0.77661 0-1.412 0.6-1.412 1.3333zm-95.012-0.45427c1.2572 0.50795 1.1817 1.1416-0.31429 2.6376-1.7365 1.7365-1.6957 2.2436 0.34524 4.2937 3.9524 3.9701 9.1262 6.6693 10.8 5.6346 0.99422-0.61446-0.43675-1.662-3.7759-2.764-2.9572-0.97599-5.3768-2.3427-5.3768-3.0371 0-0.69441 0.76839-0.96771 1.7075-0.60733 0.93914 0.36038 2.3674-0.7431 3.174-2.4522 1.2742-2.7001 1.0941-3.1804-1.3742-3.6643-4.1862-0.82076-7.1744-0.8444-5.1859-0.0411zm-283.63 3.4543c-0.0112 0.55 0.57959 1 1.3129 1s1.3242-1.35 1.3129-3c-0.0165-2.4259-0.26776-2.6173-1.3129-1-0.71088 1.1-1.3017 2.45-1.3129 3zm29.313-1.6667c0 0.73334 0.6 1.3333 1.3333 1.3333s1.3333-0.6 1.3333-1.3333c0-0.73333-0.6-1.3333-1.3333-1.3333s-1.3333 0.6-1.3333 1.3333zm-37.333 0c2.6112 1.6875 4.3762 1.6875 3.3333 0-0.45323-0.73333-1.8386-1.3241-3.0787-1.3129-1.943 0.0176-1.9782 0.19905-0.25464 1.3129zm82.109 0.80932c-3.4825 1.3364-2.3858 2.5092 2.5846 2.764 2.6602 0.13637 4.345-0.30481 3.9019-1.0218-0.42889-0.69397-1.3384-0.91657-2.021-0.49466s-1.2412 0.1317-1.2412-0.64492c0-1.6355-0.35832-1.7025-3.2243-0.6027zm-21.804 1.6083c-0.32478 0.97433 0.28478 1.2723 1.5833 0.77401 1.1613-0.44562 2.1114-1.396 2.1114-2.112 0-1.7525-3.0304-0.65511-3.6947 1.338zm-14.972 0.32778c0 0.69005 0.6 1.2546 1.3333 1.2546s1.3333-0.93541 1.3333-2.0787-0.6-1.7079-1.3333-1.2546c-0.73333 0.45322-1.3333 1.3886-1.3333 2.0787zm-132-1.412c0 0.73333 0.26459 1.3333 0.58797 1.3333 0.32339 0 0.9588-0.6 1.412-1.3333 0.45323-0.73334 0.18864-1.3333-0.58797-1.3333-0.77662 0-1.412 0.6-1.412 1.3333zm453.62 2.3464c0.8102 0.97623 2.277 1.4665 3.2595 1.0895 1.0317-0.39589 1.7864 0.21075 1.7864 1.4359 0 1.7345 0.36475 1.8187 2 0.46156 2.8182-2.3388 2.4874-3.7441-1-4.2483-6.2587-0.90491-7.6098-0.62304-6.0458 1.2613zm-220.9-1.1052c-0.42192 0.68266-0.15732 1.6181 0.58797 2.0787 0.7453 0.46061 1.3551-0.0979 1.3551-1.2412 0-2.342-0.80008-2.6869-1.943-0.83748zm206.28 3.2815c2.4527 1.8619 3.2949 4.2289 1 2.8106-1.5808-0.97698-1.7195 0.66111-0.25169 2.9717 0.76697 1.2074 1.6623 0.91257 3.403-1.1205 2.2627-2.6426 2.2601-2.8363-0.0612-4.596-1.3329-1.0104-3.3234-1.8371-4.4234-1.8371-1.6105 0-1.5456 0.34495 0.33334 1.7712zm-236.33-0.52272c0 0.73333 0.26459 1.3333 0.58798 1.3333 0.32338 0 0.9588-0.6 1.412-1.3333 0.45323-0.73334 0.18864-1.3333-0.58797-1.3333s-1.412 0.6-1.412 1.3333zm-379.32-0.0153c-0.46712 0.75581 0.0681 0.97934 1.2546 0.52401 2.3099-0.88639 2.7325-1.8421 0.81461-1.8421-0.69005 0-1.6212 0.59313-2.0692 1.3181zm649.1 2.0153c0 1.1 0.5 2 1.1111 2 1.3316 0 1.4651-1.8683 0.22222-3.1111-1.2359-1.2359-1.3333-1.1547-1.3333 1.1111zm-98.444-0.66664c0.45323 0.73333 1.5386 1.3241 2.412 1.3129 0.95415-0.0123 0.78969-0.5363-0.41203-1.3129-2.5615-1.6554-3.0231-1.6554-2 0zm-198.58-0.14463c-0.87299 1.4125 8.3677 2.751 11.244 1.6286 1.2352-0.48199 0.21544-1.1028-2.6667-1.6234-7.1162-1.2854-7.7859-1.2858-8.5773-5e-3zm-21.728-0.38315c0.44305 0.44306 1.5931 0.49043 2.5556 0.10527 1.0636-0.42564 0.7477-0.74158-0.80556-0.80556-1.4056-0.0579-2.1931 0.25724-1.75 0.7003zm294.31 3.1944c0 0.73333 0.6 1.3333 1.3333 1.3333 0.73333 0 1.3333-0.6 1.3333-1.3333 0-0.73334-0.6-1.3333-1.3333-1.3333-0.73334 0-1.3333 0.6-1.3333 1.3333zm-205.61 2.8633c0.51947 0.4871 3.3445 0.41111 6.2778-0.16886l5.3333-1.0545-5-0.15333c-3.0171-0.0925-5.0081-0.81431-5.0204-1.82-0.0136-1.1126-0.4384-1.0055-1.2778 0.32219-0.69157 1.0939-0.83239 2.3874-0.31292 2.8745zm-530.82 0.60137c0.73372 1.9121 3.3564 2.4995 4.7843 1.0716 1.6031-1.6031-0.59542-4.2232-3.0131-3.5909-1.4629 0.38255-2.1928 1.4208-1.7712 2.5193zm583.77-0.79805c-0.45323 0.73334-0.18864 1.3333 0.58797 1.3333 0.77662 0 1.412-0.6 1.412-1.3333 0-0.73333-0.26459-1.3333-0.58797-1.3333-0.32339 0-0.9588 0.6-1.412 1.3333zm-8.6667 0.74536c0 1.1433 0.60979 1.7018 1.3551 1.2412 0.7453-0.46062 1.0099-1.396 0.58798-2.0787-1.143-1.8494-1.9431-1.5046-1.9431 0.83749zm-120.97-1.2731c0.44305 0.44306 1.5931 0.49043 2.5556 0.10527 1.0636-0.42563 0.7477-0.74158-0.80556-0.80555-1.4056-0.0579-2.1931 0.25723-1.75 0.70029zm-389.73 1.5278c-1.8127 1.2833-5.0511 2.9333-7.1965 3.6667-2.1454 0.73333-4.1458 2.0833-4.4453 3-0.80624 2.4674 2.0977 2.0238 6.289-0.96061 2.0293-1.445 4.0578-2.2591 4.5078-1.8092s1.1964-0.16777 1.6588-1.3727c0.46238-1.205 1.6765-2.1908 2.698-2.1908 1.0215 0 1.8574-0.6 1.8574-1.3333 0-1.9457-1.6397-1.6403-5.3691 1zm572.4-0.19444c0.44307 0.44305 1.5931 0.49042 2.5556 0.10526 1.0636-0.42563 0.74771-0.74157-0.80556-0.80555-1.4056-0.0579-2.193 0.25724-1.75 0.70029zm-79.694 0.52778c-0.45322 0.73333-0.18864 1.3333 0.58798 1.3333 0.77661 0 1.412-0.6 1.412-1.3333 0-0.73334-0.26458-1.3333-0.58797-1.3333s-0.9588 0.6-1.412 1.3333zm36 1.964c3.6451 1.1512 6.1359 1.2689 7.8688 0.37175 2.0337-1.0528 2.3802-0.90793 1.7509 0.73214-1.011 2.6346 2.5828 4.0518 5.4949 2.1669 2.0236-1.3099 2.0136-1.3723-0.11453-0.71064-1.4485 0.45036-2.3333 0.025-2.3333-1.1216 0-2.5568-2.1648-3.1976-10.667-3.1575l-7.3333 0.0345 5.3333 1.6844zm-26 0.67922c4.4606 1.4599 6.9667 1.5876 6.1801 0.3148-0.3542-0.5731-2.6396-1.1238-5.0787-1.2239-4.0402-0.1657-4.1382-0.0848-1.1014 0.90909zm118 1.3568c-0.45323 0.73333-0.18864 1.3333 0.58797 1.3333 0.77662 0 1.412-0.6 1.412-1.3333 0-0.73334-0.26459-1.3333-0.58797-1.3333-0.32339 0-0.9588 0.6-1.412 1.3333zm-1.3882 6.578c1.1335 1.8341 3.3882 1.8408 3.3882 0.01 0-0.77661-0.6-1.0412-1.3333-0.58798-0.73334 0.45323-1.3333 0.0886-1.3333-0.8102 0-0.89883-0.36008-1.2742-0.80018-0.83406s-0.40468 1.4401 0.0787 2.2222zm35.388 2.7554c0 0.73333 1.05 1.3241 2.3333 1.3129 1.9941-0.0174 2.0425-0.20834 0.33334-1.3129-2.5163-1.6262-2.6667-1.6262-2.6667 0zm-536.66-174.67c-0.95267 1.5414-8.6715 1.8433-8.6675 0.339 1e-3 -0.55 2.1385-1.1526 4.7489-1.339 2.9122-0.208 4.4264 0.1784 3.9186 1zm531.58 4.9165c-0.9625 0.38516-2.1125 0.3378-2.5556-0.1052-0.44306-0.44306 0.34445-0.75819 1.75-0.7003 1.5533 0.064 1.8692 0.37992 0.80556 0.80555zm-9.7988 16.74c0.90816 0.90816 2.3782 1.7168 3.2667 1.7969 0.88852 0.0801 2.9655 0.23711 4.6155 0.34881 1.65 0.11174 3 0.85075 3 1.6424 0 0.94132-1.4992 1.0911-4.3333 0.43298-2.3833-0.55347-5.3833-1.0297-6.6667-1.0583-1.3317-0.0297-2.3333-1.0741-2.3333-2.433 0-2.8236 0.27534-2.9056 2.4512-0.72976zm17.993 4.571c0.48889 0.48888 0.88889 1.5089 0.88889 2.2667 0 0.83546-0.62103 0.75674-1.5778-0.2-0.86779-0.86779-1.2678-1.8878-0.8889-2.2667 0.3789-0.37889 1.0889-0.28889 1.5778 0.2zm-3.1111 0.52313c0 0.77662-0.6 1.0412-1.3333 0.58798-0.73334-0.45323-1.3333-1.0886-1.3333-1.412s0.6-0.58797 1.3333-0.58797c0.73333 0 1.3333 0.63541 1.3333 1.412zm82.333 1.8907c1.65 0.73131 3 1.8278 3 2.4367 0 0.95322-5.1222 0.0392-6.4722-1.155-1.6135-1.4272 0.98214-2.3853 3.4722-1.2817zm-66.333 0.0306c0 1.1-0.6 2-1.3333 2-0.73334 0-1.3333-0.9-1.3333-2s0.6-2 1.3333-2c0.73333 0 1.3333 0.9 1.3333 2zm-4.6667-0.66663c0.45323 0.73334-0.11133 1.3333-1.2546 1.3333-1.1433 0-2.0787-0.6-2.0787-1.3333 0-0.73333 0.56459-1.3333 1.2546-1.3333s1.6255 0.6 2.0787 1.3333zm19.333 4.588c0 1.1433-0.6 2.0787-1.3333 2.0787-0.73333 0-1.3333-0.56459-1.3333-1.2546s0.6-1.6255 1.3333-2.0787c0.73334-0.45323 1.3333 0.11133 1.3333 1.2546zm75.196 28.523c0.42563 0.68868-0.45365 1.5731-1.954 1.9655-1.661 0.43437-2.5351 0.13519-2.235-0.76508 0.66856-2.0057 3.2365-2.7416 4.189-1.2004zm2.8038 8.222c-0.45322 0.73333-1.0886 1.3333-1.412 1.3333s-0.58797-0.6-0.58797-1.3333c0-0.73334 0.63541-1.3333 1.412-1.3333s1.0412 0.6 0.58797 1.3333zm-62 1.3333c0 0.73333-0.6 1.3333-1.3333 1.3333-0.73333 0-1.3333-0.6-1.3333-1.3333s0.6-1.3333 1.3333-1.3333c0.73334 0 1.3333 0.6 1.3333 1.3333zm70.667 1.412c0 0.77661-0.6 1.0412-1.3333 0.58797-0.73333-0.45323-1.3333-1.0886-1.3333-1.412 0-0.32338 0.6-0.58797 1.3333-0.58797 0.73334 0 1.3333 0.63541 1.3333 1.412zm-6.6667 2.588c0 0.73333-0.6 1.3333-1.3333 1.3333s-1.3333-0.6-1.3333-1.3333 0.6-1.3333 1.3333-1.3333 1.3333 0.6 1.3333 1.3333zm-50 0c0.45322 0.73333 0.22404 1.3333-0.5093 1.3333-0.73333 0-1.7041-0.6-2.1574-1.3333s-0.22404-1.3333 0.50929-1.3333c0.73334 0 1.7042 0.6 2.1574 1.3333zm64.38 1.9325c4.0771 0.9033 5.5898 1.8579 5.2822 3.3333-0.25359 1.2165-1.5076 1.8916-3.0466 1.64-10.165-1.6615-10.982-2.1105-8.9285-4.9058 0.64154-0.87321 2.9512-0.89652 6.6928-0.0675zm-9.7132-0.59914c0.45322 0.73334 0.22404 1.3333-0.50929 1.3333-0.73334 0-1.7042-0.6-2.1574-1.3333-0.45322-0.73333-0.22404-1.3333 0.50929-1.3333 0.73334 0 1.7042 0.6 2.1574 1.3333zm-44.222 0.8889c0.48889 0.48888 0.88889 1.5089 0.88889 2.2667 0 0.83547-0.62103 0.75675-1.5778-0.2-0.86779-0.86778-1.2678-1.8878-0.8889-2.2667 0.3789-0.3789 1.0889-0.2889 1.5778 0.2zm-192.44 8.7282c0 0.57728-1.2 1.0496-2.6667 1.0496-1.4667 0-2.6667-0.56271-2.6667-1.2505s1.2-1.1601 2.6667-1.0496c1.4667 0.11054 2.6667 0.6732 2.6667 1.2505zm166.67 6.0642c5.5123 0.63782 17.333 4.4896 17.333 5.6479 0 0.59458-2.3994 0.98874-5.3321 0.8759-4.3592-0.16773-5.3397-0.6917-5.3739-2.8718-0.0385-2.4575-0.1488-2.483-1.4058-0.32452-1.0308 1.7701-1.9551 2.0258-3.7841 1.0469-1.3311-0.71237-2.7991-0.91634-3.2622-0.45325-0.46308 0.46309-0.84197 0.0769-0.84197-0.85812 0-1.1476-1.0832-1.4282-3.3333-0.86349-2.4517 0.61533-3.3333 0.30485-3.3333-1.1739 0-1.9641 0.62721-2.033 9.3333-1.0257zm21.333 5.652c0 0.73333-0.6 1.3333-1.3333 1.3333-0.73333 0-1.3333-0.6-1.3333-1.3333 0-0.73334 0.6-1.3333 1.3333-1.3333 0.73334 0 1.3333 0.6 1.3333 1.3333zm-105.33 4.7454c0 1.1433-0.60978 1.7018-1.3551 1.2412-0.74529-0.46062-1.0099-1.396-0.58797-2.0787 1.143-1.8494 1.943-1.5045 1.943 0.8375zm34 4.588c-0.45322 0.73333-1.3886 1.3333-2.0787 1.3333s-1.2546-0.6-1.2546-1.3333 0.93541-1.3333 2.0787-1.3333 1.7079 0.6 1.2546 1.3333zm24.561 6.1111c-0.064 1.5533-0.37992 1.8692-0.80554 0.80556-0.38516-0.9625-0.3378-2.1125 0.1052-2.5556 0.44306-0.44306 0.75818 0.34445 0.70029 1.75zm49.439 33.968c0 0.77661-0.6 1.0412-1.3333 0.58798-0.73333-0.45323-1.3333-1.0886-1.3333-1.412s0.6-0.58797 1.3333-0.58797 1.3333 0.63541 1.3333 1.412zm-590.77 0.69909c-0.064 1.5532-0.37992 1.8692-0.80555 0.80555-0.38516-0.9625-0.3378-2.1125 0.1052-2.5556 0.44305-0.44305 0.75819 0.34446 0.70029 1.75zm115.44 4.5556c-0.45323 0.73334-1.724 1.3333-2.824 1.3333s-1.6292-0.6-1.176-1.3333c0.45322-0.73333 1.724-1.3333 2.824-1.3333s1.6292 0.6 1.176 1.3333zm-113.33 0c-0.45322 0.73334-1.0886 1.3333-1.412 1.3333-0.32339 0-0.58798-0.6-0.58798-1.3333 0-0.73333 0.63542-1.3333 1.412-1.3333s1.0412 0.6 0.58797 1.3333zm484 1.3333c0.45322 0.73333 0.18864 1.3333-0.58798 1.3333-0.77661 0-1.412-0.6-1.412-1.3333 0-0.73334 0.26458-1.3333 0.58797-1.3333s0.9588 0.6 1.412 1.3333zm-476.67 0c0 0.73333-1.35 1.3241-3 1.3129-2.4259-0.0165-2.6173-0.26775-1-1.3129 2.585-1.6706 4-1.6706 4 0zm147.33 2.6667c-0.45323 0.73334-1.0886 1.3333-1.412 1.3333-0.32338 0-0.58797-0.6-0.58797-1.3333 0-0.73333 0.63541-1.3333 1.412-1.3333 0.77661 0 1.0412 0.6 0.58797 1.3333zm339.33 1.3333c0 0.73333-0.6 1.3333-1.3333 1.3333-0.73333 0-1.3333-0.6-1.3333-1.3333 0-0.73334 0.6-1.3333 1.3333-1.3333 0.73334 0 1.3333 0.6 1.3333 1.3333zm-284.67 0c0.45323 0.73333-0.11133 1.3333-1.2546 1.3333-1.1433 0-2.0787-0.6-2.0787-1.3333 0-0.73334 0.56459-1.3333 1.2546-1.3333s1.6255 0.6 2.0787 1.3333zm90.61 2.5745c0.91078 1.4736-1.1925 3.0649-2.4237 1.8337-1.2677-1.2677-1.0315-3.0749 0.402-3.0749 0.69005 0 1.5998 0.55854 2.0217 1.2412zm-16.978 1.3565c-0.39347 1.5046-0.17156 2.7356 0.49312 2.7356s1.2085 0.9 1.2085 2-0.6 2-1.3333 2c-0.73333 0-1.3333-0.91485-1.3333-2.033s-1.5832-2.6349-3.5182-3.3706c-4.0496-1.5396-3.9027-1.8796 1.3585-3.1444 3.4084-0.81938 3.7598-0.61558 3.1248 1.8124zm-348.97-1.2644c0 0.73334-0.63542 1.3333-1.412 1.3333s-1.0412-0.6-0.58797-1.3333c0.45322-0.73333 1.0886-1.3333 1.412-1.3333 0.32339 0 0.58798 0.6 0.58798 1.3333zm-25.333 0c0 0.73334-0.6 1.3333-1.3333 1.3333s-1.3333-0.6-1.3333-1.3333c0-0.73333 0.6-1.3333 1.3333-1.3333s1.3333 0.6 1.3333 1.3333zm406.67 2.0418c0 2.1565-2.0835 2.6471-3.247 0.76453-0.40574-0.65649 0.15885-1.5377 1.2546-1.9582 1.2102-0.4644 1.9923 4e-3 1.9923 1.1936zm-6.6667-0.70851c1.5585 1.0072 1.1906 1.297-1.6667 1.3129-2.0167 0.0112-3.6667-0.57958-3.6667-1.3129 0-1.6859 2.7246-1.6859 5.3333 0zm-385.92 0.70907c-3.0366 2.2967-8.7452 2.6111-8.7452 0.48161 0-0.8118 0.88078-1.138 1.9573-0.7249 1.0765 0.4131 2.3119 0.17729 2.7454-0.52402 0.43344-0.7013 2.1026-1.256 3.7094-1.2327 2.8556 0.0414 2.8631 0.0864 0.33314 2zm683.92 0.62426c-0.45322 0.73333-1.0886 1.3333-1.412 1.3333s-0.58798-0.6-0.58798-1.3333 0.63541-1.3333 1.412-1.3333c0.77662 0 1.0412 0.6 0.58798 1.3333zm-702.78-0.17895c0.57436 0.92933 0.68421 2.0498 0.24412 2.4899-1.1933 1.1933-2.4944-0.56174-1.8499-2.4953 0.45163-1.3549 0.7657-1.3538 1.6057 5e-3zm618.78 1.5123c0.45323 0.73334 0.53771 1.3333 0.18774 1.3333-0.34996 0-1.5922 0.3668-2.7605 0.81512-1.5547 0.5966-1.9032 0.23916-1.2997-1.3333 0.93357-2.4329 2.6494-2.794 3.8725-0.81512zm-177.26 0.11876c0.85323 1.3806 0.95362 1.3234-3.1112 1.7723-1.6708 0.18454-2.8382-0.26304-2.5944-0.99461 0.58549-1.7565 4.7498-2.3241 5.7055-0.7777zm-433.42-0.097c-0.46062 0.74529-1.396 1.0099-2.0787 0.58798-1.8494-1.143-1.5045-1.9431 0.8375-1.9431 1.1433 0 1.7018 0.60979 1.2412 1.3551zm384.68 2.0569c0 1.1433-0.6 1.7079-1.3333 1.2546-0.73333-0.45323-1.3333-1.3886-1.3333-2.0787 0-0.69006 0.6-1.2546 1.3333-1.2546 0.73334 0 1.3333 0.93541 1.3333 2.0787zm-366.67-0.74535c0 0.73333-0.6 1.3333-1.3333 1.3333-0.73333 0-1.3333-0.6-1.3333-1.3333 0-0.73334 0.6-1.3333 1.3333-1.3333 0.73334 0 1.3333 0.6 1.3333 1.3333zm-13.333 2c0 1.1-0.58117 2-1.2915 2-0.71031 0-0.94612-0.9-0.52401-2 0.42212-1.1 1.0033-2 1.2915-2 0.2882 0 0.52401 0.9 0.52401 2zm-29.333-0.77572c0 2.6663-1.7091 5.4424-3.3505 5.4424-1.3693 0-1.4092-0.6957-0.19068-3.3229 1.5232-3.2841 3.5412-4.4919 3.5412-2.1194zm496 1.4424c0 0.73333-0.6 1.3333-1.3333 1.3333s-1.3333-0.6-1.3333-1.3333 0.6-1.3333 1.3333-1.3333 1.3333 0.6 1.3333 1.3333zm139 0.88304c-0.91667 0.36989-2.4167 0.36989-3.3333 0-0.91667-0.36988-0.16667-0.67251 1.6667-0.67251 1.8333 0 2.5833 0.30263 1.6667 0.67251zm-643 0.43247c0 1.1057-3.2471 2.6845-5.5211 2.6845-0.71664 0-0.97692-0.52757-0.5784-1.1724 0.97776-1.5821 6.0995-2.8518 6.0995-1.5121zm514.67 1.4298c0 0.77661-0.6 1.0412-1.3333 0.58797-0.73334-0.45322-1.3333-1.0886-1.3333-1.412s0.6-0.58798 1.3333-0.58798c0.73333 0 1.3333 0.63542 1.3333 1.412zm-524-0.53226c0 0.34589-0.6645 1.8705-1.4767 3.388-1.1878 2.2195-1.7102 2.398-2.6707 0.91235-0.85125-1.3166-1.0972-0.88981-0.85669 1.4865 0.22568 2.2298-0.26402 3.2064-1.4791 2.9501-0.99907-0.2108-2.63 0.6892-3.6243 2-2.9066 3.832-2.1604 0.75454 0.97791-4.0331 2.4412-3.7241 9.1295-8.6354 9.1295-6.7039zm544.03 3.8191c0.92763 1.1177 1.3011 2.4177 0.82992 2.8889-0.47116 0.47117-0.85666 0.15667-0.85666-0.69889 0-0.85555-1.5354-1.5556-3.412-1.5556-1.9351 0-3.0553-0.57712-2.588-1.3333 1.211-1.9594 4.0985-1.6245 6.0267 0.69889zm-536.8 0.37207c-1.5229 1.2736-2.5229 3.0536-2.2222 3.9556 0.30068 0.90204-0.13872 1.6401-0.97644 1.6401-0.83773 0-1.1523-0.60001-0.69909-1.3333 0.45323-0.73334-0.44677-1.3333-2-1.3333-1.6376 0-2.4596-0.58974-1.9565-1.4037 0.47716-0.77204 1.5572-1.1738 2.4001-0.89286 0.84292 0.28097 2.3308-0.28735 3.3064-1.263 0.9756-0.97559 2.481-1.7538 3.3452-1.7294 0.86428 0.0244 0.32541 1.0864-1.1975 2.3599zm-21.898 0.18369c0 0.77661-0.6 1.412-1.3333 1.412-0.73334 0-1.1833 0.675-1 1.5 0.18333 0.825-0.47494 1.7944-1.4628 2.1543-1.4226 0.51821-1.4904 0.0831-0.32616-2.0924 1.7418-3.2545 4.1223-4.9719 4.1223-2.9739zm3.2265 1.2392c0.40927 0.6622-0.14928 1.9454-1.2412 2.8517-1.6142 1.3397-1.9853 1.258-1.9853-0.4369 0-2.4892 2.1746-4.1167 3.2265-2.4148zm684.77 4.1728c0 0.73333-0.6 1.3333-1.3333 1.3333-0.73334 0-1.3333-0.6-1.3333-1.3333 0-0.73334 0.6-1.3333 1.3333-1.3333 0.73333 0 1.3333 0.6 1.3333 1.3333zm-34 0c-0.45323 0.73333-1.424 1.3333-2.1574 1.3333-0.73334 0-0.96252-0.6-0.5093-1.3333 0.45323-0.73334 1.424-1.3333 2.1574-1.3333 0.73333 0 0.96252 0.6 0.50929 1.3333zm-602 2.6667c0 0.73334-0.6 1.3333-1.3333 1.3333-0.73334 0-1.3333-0.6-1.3333-1.3333 0-0.73333 0.6-1.3333 1.3333-1.3333 0.73333 0 1.3333 0.6 1.3333 1.3333zm-6 1.3333c-0.45323 0.73333-1.8386 1.3241-3.0787 1.3129-1.943-0.0176-1.9782-0.19905-0.25464-1.3129 2.6112-1.6875 4.3762-1.6875 3.3333 0z" fill="#75c5c2" stroke-width="1.3333"/>
  </g>
 </g>
</svg>
